<svg width="250" height="250" viewBox="0 0 250 250" xmlns="http://www.w3.org/2000/svg" xmlns:xlink="http://www.w3.org/1999/xlink">
    <defs>
        <path id="fp14flc9sa" d="M0 0h2.765v.93H0z"/>
        <path id="igbk73x8kc" d="M0 0h4.654v4.655H0z"/>
    </defs>
    <g fill="none" fill-rule="evenodd">
        <path d="M181.794 202.537c42.956-17.071 62.978-60.505 38.823-97.278-24.154-36.773-55.716-16.213-93.848-13.026-38.131 3.187-81.095-39.228-98.91-.404-17.814 38.824 26.982 94.6 53.073 106.736 26.09 12.136 62 19.417 100.862 3.972" fill="#EEF8FF"/>
        <path d="M78.265 52.912s5.12 18.605 33.391 26.383c28.27 7.779 58.862-7.824 55.189-30.85-3.672-23.025-37.546-11.451-49.094-10.78-11.548.672-44.988-5.907-39.486 15.247" fill="#EEF8FF"/>
        <path d="M137.119 211.181c.077-.027 7.782-2.725 17.49-8.9 8.957-5.698 21.517-15.616 30.476-30.498 14.388-23.9 18.432-56.422 18.472-56.747l-1.113-.134c-.038.323-4.057 32.613-18.319 56.303-16.926 28.115-47.07 38.812-47.373 38.917l.367 1.06z" fill="#D7E8F2"/>
        <path d="M202.29 120.664s4.336-6.842 5.742-13.527c1.406-6.686-6.329-10.348-6.74-1.126-.42 9.47.998 14.653.998 14.653M199.406 131.887s6.737 1.296 12.07.104c5.33-1.191 4.487-9.231-2.19-6.259-6.857 3.052-9.88 6.155-9.88 6.155" fill="#D7E8F2"/>
        <path d="M199.973 131.823s-6.478-2.26-10.491-5.966c-4.015-3.707.75-10.237 5.034-4.316 4.4 6.081 5.457 10.282 5.457 10.282M195.3 146.394s6.698 1.48 12.061.436c5.362-1.045 4.74-9.105-2.017-6.317-6.938 2.863-10.045 5.881-10.045 5.881" fill="#D7E8F2"/>
        <path d="M195.868 146.345s-6.413-2.436-10.324-6.252c-3.91-3.814 1.03-10.212 5.151-4.175 4.231 6.2 5.173 10.427 5.173 10.427M188.987 162.508s6.64 1.732 12.037.89c5.398-.844 5.079-8.92-1.778-6.389-7.041 2.6-10.259 5.5-10.259 5.5" fill="#D7E8F2"/>
        <path d="M189.558 162.481s-6.318-2.676-10.083-6.635c-3.764-3.96 1.415-10.167 5.305-3.98 3.995 6.354 4.778 10.615 4.778 10.615M179.734 178.395s6.16 3.02 11.618 3.27 6.755-7.729-.47-6.614c-7.417 1.144-11.148 3.344-11.148 3.344" fill="#D7E8F2"/>
        <path d="M180.299 178.483s-5.658-3.882-8.558-8.512c-2.9-4.63 3.411-9.681 5.991-2.842 2.65 7.022 2.567 11.354 2.567 11.354M167.556 191.413s5.845 3.592 11.254 4.362c5.409.768 7.46-7.05.163-6.63-7.493.433-11.417 2.268-11.417 2.268" fill="#D7E8F2"/>
        <path d="M168.11 191.553s-5.262-4.403-7.708-9.288c-2.446-4.886 4.319-9.312 6.235-2.258 1.967 7.243 1.473 11.546 1.473 11.546M146.596 159.818c.053-.035 5.378-3.61 11.537-10.223 5.683-6.104 13.27-16.126 17.14-29.212 6.213-21.013 2.857-46.538 2.823-46.793l-.873.118c.034.254 3.364 25.596-2.795 46.426-7.309 24.72-28.11 38.812-28.32 38.952l.488.732z" fill="#D7E8F2"/>
        <path d="M178.246 78.119s1.943-6.058 1.69-11.419c-.252-5.36-6.857-6.616-5.346.477 1.552 7.282 3.656 10.942 3.656 10.942M178.272 87.222s5.378-.347 9.196-2.307c3.817-1.96 1.587-7.905-2.902-4.325-4.61 3.676-6.294 6.632-6.294 6.632" fill="#D7E8F2"/>
        <path d="M178.69 87.06s-5.37-.437-9.155-2.46c-3.785-2.025-1.454-7.931 2.974-4.277 4.547 3.753 6.182 6.738 6.182 6.738M178.018 99.062s5.386-.198 9.256-2.053c3.87-1.854 1.804-7.859-2.782-4.403-4.71 3.548-6.474 6.456-6.474 6.456" fill="#D7E8F2"/>
        <path d="M178.441 98.913s-5.358-.584-9.085-2.712c-3.727-2.127-1.235-7.968 3.09-4.192 4.443 3.875 5.995 6.904 5.995 6.904M176.405 112.561s5.39.004 9.327-1.704c3.937-1.708 2.097-7.786-2.615-4.505-4.839 3.368-6.712 6.21-6.712 6.21" fill="#D7E8F2"/>
        <path d="M176.834 112.428s-5.333-.785-8.977-3.051c-3.645-2.266-.935-8.01 3.246-4.074 4.294 4.04 5.73 7.125 5.73 7.125M172.511 126.468s5.281 1.078 9.48.19c4.198-.89 3.607-7.212-1.665-4.937-5.412 2.337-7.815 4.747-7.815 4.747" fill="#D7E8F2"/>
        <path d="M172.958 126.423s-5.068-1.833-8.188-4.78c-3.12-2.946.68-8.033 3.992-3.344 3.402 4.815 4.196 8.124 4.196 8.124M165.827 138.772s5.154 1.576 9.418 1.092c4.264-.485 4.278-6.835-1.187-5.072-5.61 1.81-8.231 3.98-8.231 3.98" fill="#D7E8F2"/>
        <path d="M166.276 138.77s-4.871-2.308-7.696-5.538c-2.825-3.23 1.442-7.933 4.293-2.95 2.928 5.118 3.403 8.487 3.403 8.487M141.75 202.544c-.072 0-7.257-.114-17.079-2.575-9.065-2.272-22.31-7.066-33.925-17.006-18.654-15.964-31.066-42.003-31.19-42.264l.893-.42c.122.258 12.447 26.11 30.938 41.935 21.946 18.78 50.093 19.34 50.375 19.344l-.012.986z" fill="#D7E8F2"/>
        <path d="M62.178 145.048s-5.52-4.51-8.553-9.702c-3.031-5.193 2.412-10.402 5.316-2.813 2.982 7.792 3.237 12.515 3.237 12.515M67.704 153.62s-5.266 2.954-10.05 3.44c-4.785.485-6.313-6.464.09-5.836 6.574.644 9.96 2.396 9.96 2.396" fill="#D7E8F2"/>
        <path d="M67.212 153.724s4.783-3.687 7.106-7.897c2.323-4.21-3.47-8.341-5.403-2.206-1.986 6.3-1.703 10.103-1.703 10.103M75.164 164.595s-5.185 3.098-9.953 3.715c-4.77.617-6.487-6.287-.07-5.836 6.59.463 10.023 2.121 10.023 2.121" fill="#D7E8F2"/>
        <path d="M74.675 164.713s4.68-3.817 6.886-8.09c2.206-4.272-3.698-8.242-5.462-2.055-1.812 6.352-1.424 10.145-1.424 10.145M84.911 176.3s-5.064 3.29-9.806 4.086c-4.742.796-6.72-6.039-.29-5.829 6.603.216 10.096 1.744 10.096 1.744" fill="#D7E8F2"/>
        <path d="M84.427 176.437s4.533-3.99 6.577-8.342c2.045-4.353-4.004-8.099-5.535-1.85-1.572 6.416-1.042 10.192-1.042 10.192M97.052 187s-4.306 4.232-8.795 5.957c-4.489 1.725-7.788-4.58-1.445-5.655 6.512-1.104 10.24-.303 10.24-.303" fill="#D7E8F2"/>
        <path d="M96.605 187.228s3.646-4.813 4.782-9.485c1.137-4.672-5.538-7.138-5.793-.71-.261 6.601 1.01 10.195 1.01 10.195M110.838 194.488s-3.883 4.624-8.187 6.77c-4.304 2.144-8.189-3.817-1.977-5.492 6.378-1.72 10.164-1.278 10.164-1.278" fill="#D7E8F2"/>
        <path d="M110.415 194.76s3.171-5.14 3.857-9.9c.685-4.758-6.193-6.577-5.834-.153.368 6.596 1.977 10.052 1.977 10.052" fill="#D7E8F2"/>
        <path d="M118.68 203.591v8.842s3.837 2.285 15.23 3.179c11.393.893 30.565-1.69 35.135-3.477 0 0 .894-6.855.695-8.544 0 0-22.153 3.279-31.987 3.18-9.835-.1-19.073-3.18-19.073-3.18M40.488 178.811s-4.22 4.138-4.724 4.596c-.502.459 1.025 1.734 2.166 1.35 1.141-.385 6.132-3.399 6.718-4.058.587-.658.289-1.886-.268-2.507-.556-.621-1.882-.621-3.892.62" fill="#344551"/>
        <path d="M44.72 177.827s-3.756 4.563-4.208 5.073c-.451.509 1.203 1.615 2.297 1.11 1.093-.503 5.735-4.03 6.248-4.748.514-.717.086-1.906-.533-2.465-.619-.559-1.937-.417-3.803 1.03" fill="#344551"/>
        <path d="M39.59 180.067s3.647-4.526 4.229-4.947c.581-.422 2.639-.299 2.639-.299l2.675-1.229s1.687.34 2.372.52c.684.18 8.094 5.798 8.094 5.798s-3.671 1.22-6.357 2.29c-2.685 1.069-13.653-2.133-13.653-2.133" fill="#FF9F91"/>
        <path d="M62.794 181.585s.647 4.848-.098 6.461c-.744 1.614-6.878 6.101-11.721 6.396-1.317.08-7.634.999-9.379 1.166-1.745.167-1.929-2.28-1.055-2.918.999-.729 2.681-1.922 5.035-2.307 2.156-.353 5.332-.776 4.941-1.473-.361-.643-3.755-3.583-3.755-3.583s.852-2.606 2.647-4.009c1.795-1.402 6.27-3.3 7.215-2.9.946.398 6.17 3.167 6.17 3.167" fill="#FF9F91"/>
        <path d="M47.497 185.965c-2.181-1.58-6.948-3.27-9.093-2.821-2.145.448-5.188.733-5.892.113-.706-.62-.677-2.929 1.86-3.491 2.537-.563 6.854-2.393 8.394-1.915 1.54.477 8.67 1.246 10.352 2.099 1.683.852 3.286 4.386.99 5.954-2.294 1.567-6.61.061-6.61.061M94.577 145.278c4.051-1.297 10.284 4.865 11.481 6.96-1.35 6.317-8.215 15.56-12.838 19.755-4.622 4.195-26.794 16.508-32.755 17.955-3.102.753-5.336-3.866-2.8-8.252 2.537-4.385 18.905-22.987 23.99-28.013 2.693-2.66 8.626-7.029 12.922-8.405" fill="#FF9F91"/>
        <path d="m101.518 158.625-13.637-3.842s3.978 8.187 9.54 12.721a60.227 60.227 0 0 0 5.059-7.111l-.962-1.768z" fill="#344551"/>
        <path d="m110.848 100.544-4.887 1.211c-5.046 1.457-9.123 7.97-10.717 12.977l-11.375 27.284s-5.07 4.484-3.13 8.356c1.94 3.87 15.461 13.974 20.866 13.936 4.433-.031 13.457-26.268 15.149-31.882 1.692-5.614-5.906-31.882-5.906-31.882" fill="#00ADF6"/>
        <path d="M116.754 132.426c.29-.963.307-2.533.136-4.473-3.366-4.02-7.662-5-8.663-1.615-1.206 4.076-1.875 24.855-2.091 32.826 4.373-7.94 9.399-22.693 10.618-26.738M136.562 92.963s-1.452-4.609-15.21-3.128c-10.31 1.11-11.458 8.354-11.458 8.354s.298 5.32 1.554 8.472c1.255 3.153 5.914 4.416 11.23 2.905 5.314-1.51 11.583-6.372 13.869-9.303 2.285-2.931.015-7.3.015-7.3" fill="#344551"/>
        <path d="M125.564 72.84s3.158 8.382 5.601 13.666c2.444 5.285 4.729 12.037 4.729 12.037s-1.475 6.859-3.641 10.162c-2.167 3.303-12.802 7.577-16.074 4.824-3.273-2.752-4.998-5.646-4.998-5.646s1.775-7.43.85-12.403c-.926-4.974-3.804-14.508-3.804-14.508l8.164-7.882 9.173-.25z" fill="#F7958B"/>
        <path d="M112.03 95.48c-.925-4.974-3.803-14.508-3.803-14.508l1.382-1.333 3.3-1.898 12.372 1.333s-.656 13.93-5.645 20.164c-1.992 2.488-4.884 3.568-7.643 3.983.304-2.423.48-5.36.038-7.741" fill="#344551"/>
        <path d="m144.724 94.52-8.22-.353s-8.987 13.054-17.244 13.48c-8.256.428-9.366-9.458-9.366-9.458l-5.98 5.448s-.385 19.642 4.313 42.613c6.61 32.316 8.598 52.406 9.081 58.283.09 1.093.878 2 1.95 2.234 6.434 1.412 28.951 5.443 50.86-1.52a3.177 3.177 0 0 0 2.204-2.753c.726-8.411 2.961-41.05-2.508-75.181-5.504-34.35-25.09-32.793-25.09-32.793" fill="#00ADF6"/>
        <path fill="#344551" d="m119.26 107.648-4.997 13.705-1.156-1.582zM119.26 107.648l5.775 12.014 1.769-.901z"/>
        <path d="M136.562 92.963s-5.273 11.5-17.302 14.685l7.974 11.746s5.186-4.59 8.301-9.53c3.416-5.416 2.987-11.351 2.987-11.351l-1.96-5.55zM119.26 107.648l-6.72 13.237s-2.154-2.983-2.88-6.474c-.874-4.209-.544-11.47-.544-11.47l.778-4.752s1.693 8.245 9.366 9.459" fill="#C4EEFE"/>
        <path d="M92.046 62.282s-2.456.535-1.036 5.605c.471 1.679 3.015 5.398 3.015 5.398s.89-4.485.45-6.389c-.442-1.904-2.429-4.614-2.429-4.614" fill="#344551"/>
        <path d="M92.65 70.062s2.15 11.404 4.035 18.548c2.46 9.333 6.324 13.039 12.118 11.762 4.992-1.1 15.959-7.288 16.253-15.516.295-8.228-.714-19.5-3.226-25.151-2.514-5.652-8.317-8.018-16.786-6.025-8.468 1.994-14.294 7.65-12.395 16.382" fill="#FF9F91"/>
        <path d="M103.537 85.368a.44.44 0 0 0-.032-.867c-.593-.084-1.306-.425-1.563-1.002-.205-.457-.09-1.011.339-1.648 1.439-2.14-.322-7.136-.528-7.699a.434.434 0 0 0-.565-.263.44.44 0 0 0-.262.565c.515 1.413 1.632 5.406.623 6.905-.76 1.127-.643 1.981-.413 2.5.422.944 1.473 1.407 2.246 1.515a.443.443 0 0 0 .155-.006M122.752 75.11s-2.175-6.17-2.41-6.916c-.237-.745-2.612-.963-2.612-.963l-3.205-7.695s3.94-3.002 6.339-3.523c2.397-.522 6.348.758 8.129 2.505 1.78 1.746-.844 14.514-1.93 15.654-1.085 1.14-3.748 2.538-4.311.938" fill="#344551"/>
        <path d="M122.44 72.423s.76-5.218 4.347-4.988c3.586.23 4.757 5.028 3.965 8.358-.79 3.33-3.68 5.727-6.318 5.796-2.637.068-1.994-9.166-1.994-9.166" fill="#FF9F91"/>
        <path d="M123.91 78.091a.594.594 0 0 0 .028-.008c.076-.02 1.874-.557 1.839-1.889-.023-.898-.722-1.547-1.127-1.848.312-1.198 1.014-2.896 1.829-3.107l.036-.009c1.02-.221 1.538 1.503 1.543 1.52.067.234.31.377.546.3a.441.441 0 0 0 .3-.546c-.26-.902-1.107-2.53-2.646-2.119-1.69.439-2.458 3.69-2.54 4.06l-.07.316.283.162c.263.152.949.678.965 1.294.014.54-.887.927-1.204 1.02a.442.442 0 0 0 .217.854M115.947 59.32s-11.634 4.001-16.21 4.884c-4.577.883-7.138.85-7.138.85s-4.543-.4-5.504-7.474c-.676-4.978 13.783-10.707 21.631-11.466 7.848-.76 14.122 3.131 15.79 6.042 1.667 2.912-2.288 5.323-4.08 5.799-1.792.476-4.489 1.366-4.489 1.366M95.316 73.599a.446.446 0 0 0 .192-.253c.614-2.123 2.632-2.186 2.653-2.187a.44.44 0 1 0-.018-.882 3.824 3.824 0 0 0-3.483 2.824.44.44 0 0 0 .656.498M110.94 70.088a.427.427 0 0 0 .137-.292.451.451 0 0 0-.409-.472c-3.621-.295-5.614 3.62-5.699 3.79a.447.447 0 0 0 .196.591.429.429 0 0 0 .583-.183c.018-.036 1.824-3.572 4.87-3.324a.422.422 0 0 0 .322-.11M108.07 76.11c.173.796.656 1.367 1.08 1.275.423-.092.626-.812.453-1.61-.174-.796-.657-1.368-1.08-1.275-.424.092-.627.812-.454 1.61M97.07 78.82c.172.798.656 1.37 1.08 1.277.423-.092.626-.813.452-1.61-.173-.797-.657-1.368-1.08-1.276-.424.093-.627.813-.453 1.61" fill="#344551"/>
        <path d="M106.371 91.968s1.355-2.043 3.235-3.514c1.88-1.471 3.433-.654 3.433-.654M119.26 108.907s4.904 27.67 6.594 36.895c1.691 9.223 8.056 62.542 8.056 62.542" stroke="#344551" stroke-width="2" stroke-linecap="round"/>
        <path d="M67.066 112.268c1.23-.507 9.021-1.77 10.973-1.57 1.952.199 2.417 3.521 1.686 4.252-.73.732-3.36 1.993-6.165 2.691-2.806.698-4.135.898-4.733.5-.598-.4-1.76-5.873-1.76-5.873" fill="#344551"/>
        <path d="M75.57 101.245c3.663-1.32 3.756-10.376.206-20.227-3.549-9.85-9.396-16.766-13.06-15.445l-5.003 1.802 12.855 35.672 5.002-1.802z" fill="#A7A7A7"/>
        <path d="m68.366 96.937 2.201 6.11 5.003-1.802c1.993-.719 2.927-3.73 2.794-7.91l-9.998 3.602zM67.709 95.114l10.52-3.79a37.77 37.77 0 0 0-.652-4.055l-11.236 4.048 1.368 3.797z" fill="#344551"/>
        <path d="m59.343 71.896 9.414-3.392c-.672-.734-1.34-1.35-1.995-1.835l-8.234 2.967.815 2.26z" fill="#F5F9FF"/>
        <path d="m84.352 131.75-1.091.393a3.409 3.409 0 0 1-4.363-2.052l-7.81-21.675a1.47 1.47 0 0 1 .885-1.882l4.738-1.707a1.47 1.47 0 0 1 1.882.885l7.81 21.675a3.41 3.41 0 0 1-2.051 4.363" fill="#16355A"/>
        <path d="m80.772 129.75-7.962-22.097c-.25-.695.11-1.46.804-1.71l-1.767.637a1.335 1.335 0 0 0-.805 1.71l7.963 22.096a3.095 3.095 0 0 0 3.961 1.863l1.68-.606c.015-.005.028-.012.043-.018a3.094 3.094 0 0 1-3.917-1.876" fill="#344551"/>
        <path fill="#A7A7A7" d="m74.836 101.51-3.535 1.273 1.274 3.535 3.535-1.274z"/>
        <path fill="#344551" d="m74.836 101.51-3.535 1.273.711 1.974 3.535-1.274z"/>
        <path d="M70.774 82.82c3.55 9.851 3.457 18.907-.206 20.227-3.664 1.32-9.511-5.595-13.061-15.446-3.55-9.85-3.457-18.906.207-20.226 3.664-1.32 9.51 5.595 13.06 15.446" fill="#A7A7A7"/>
        <path d="m54.93 73.486 8.825-3.18c-2.185-2.388-4.346-3.542-6.041-2.93-1.695.61-2.624 2.877-2.783 6.11M55.04 77.153l10.97-3.952a26.827 26.827 0 0 0-1.698-2.262l-9.407 3.39c-.007.883.038 1.829.135 2.824" fill="#344551"/>
        <path d="M60.155 67.54c-1.776 3.317-1.267 10.674 1.568 18.542 2.835 7.868 7.136 13.859 10.62 15.28 1.776-3.316 1.267-10.673-1.568-18.541-2.836-7.869-7.136-13.859-10.62-15.28" fill="#C4EEFE"/>
        <path d="M68.478 95.633c-1.83-1.057-5.009-6.545-6.986-10.208.075.22.152.438.231.658 2.835 7.867 7.135 13.858 10.62 15.28.835-1.56 1.165-4.017.984-6.999-1.464 1.64-3.357 2.131-4.849 1.27" fill="#F5F9FF"/>
        <path d="m146.923 146.514 21.224-27.12s-3.017-12.241-6.784-13.215c-3.766-.974-14.44 40.335-14.44 40.335" fill="#344551"/>
        <path d="M144.137 94.495s10.421-.585 15.708 5.397c6.087 6.887 6.46 13.783 1.861 22.842-8.918 17.572-17.483 29.929-17.483 29.929-.876 2.152-3.605 2.812-5.368 1.298 0 0-5.05-1.599-10.902-5.935-5.852-4.335-9.712-10.332-9.712-10.332l3.354-6.21s.053-1.744 1.002-2.975c.049-.063 1.223-.88 1.981-1.17 4.323-7.21 19.56-32.844 19.56-32.844" fill="#00ADF6"/>
        <path d="M132.239 139.298s7.206 5.532 9.01 10.613c1.803 5.08-1.041 3.943-2.236 3.033-1.194-.91-10.126-9.045-11.377-11.434-1.251-2.39 4.603-2.212 4.603-2.212" fill="#344551"/>
        <path d="M127.737 159.04c4.17.843 8.887.257 10.78-3.551 1.434-2.887 1.773-3.365 2.731-5.578-2.037-6.131-12.75-13.613-17.806-17.273-5.057-3.66-26.169-11.753-30.594-14.748-2.376-1.609-8.82 4.948-5.815 9.026 3.005 4.08 21.326 20.763 26.935 25.196 2.97 2.348 9.348 6.035 13.77 6.928" fill="#FF9F91"/>
        <path d="m124.578 127.34 14.763-24.12c1.364-2.228 5.334-5.031 5.334-5.031" stroke="#344551" stroke-width="1.5" stroke-linecap="round" stroke-linejoin="round"/>
        <path d="M121.648 130.736s.543-4.13 4.24-3.098c3.695 1.033 5.217 2.12 5.217 2.12" stroke="#344551" stroke-width="1.5" stroke-linecap="round" stroke-linejoin="round"/>
        <path d="M93.563 119.662s-.543-6.86-.98-8.987c-.438-2.126-5.281-3.425-7.17-3.78-1.891-.354-4.09-5.364-4.508-6.387-.417-1.024-3.19.32-2.835 3.273.355 2.953.963 3.35 1.553 4.414.591 1.063 2.507 3.999 2.507 3.999l1.982 1.46s3.308 7.063 4.608 8.244c1.299 1.181 4.607 1.433 4.843-2.236" fill="#FF9F91"/>
        <path d="M84.377 111.625s-6.952 1.11-9.276 1.285c-2.324.176-7.37-.93-8.035-.643-.664.287-1.726 2.412-1.859 3.475-.133 1.062 1.86 2.67 1.86 2.67l1.991.782s.73 3.986 1.527 4.517c0 0 .89.799 1.26 1.168.369.369 2.128 3.04 3.42 3.779 1.292.738 3.414.828 5.075.829 1.662.001 9.222-2.515 10.33-3.19 1.107-.675 1.587-2.157 2.157-3.2.57-1.042-8.45-11.472-8.45-11.472" fill="#FF9F91"/>
        <path d="M189.993 208.333a.465.465 0 0 1-.465-.466v-1.834a.465.465 0 1 1 .93 0v1.834a.466.466 0 0 1-.465.466M189.993 212.86a.465.465 0 0 1-.465-.466v-1.835a.465.465 0 1 1 .93 0v1.835a.465.465 0 0 1-.465.466M190.874 209.214c0-.257.208-.466.466-.466h1.834a.466.466 0 0 1 0 .93h-1.834a.465.465 0 0 1-.466-.464M186.348 209.214c0-.257.208-.466.465-.466h1.835a.465.465 0 0 1 0 .93h-1.835a.465.465 0 0 1-.465-.464M193.969 50.888a.466.466 0 0 1-.466-.465v-1.835a.465.465 0 0 1 .93 0v1.835a.465.465 0 0 1-.464.465M193.969 55.415a.466.466 0 0 1-.466-.466v-1.834a.466.466 0 0 1 .93 0v1.834a.465.465 0 0 1-.464.466M194.85 51.768c0-.256.208-.465.464-.465h1.836a.465.465 0 0 1 0 .93h-1.836a.465.465 0 0 1-.465-.465M190.322 51.768c0-.256.21-.465.466-.465h1.835a.465.465 0 1 1 0 .93h-1.835a.466.466 0 0 1-.466-.465M20.313 168.1a.466.466 0 0 1-.466-.465V165.8a.466.466 0 0 1 .931 0v1.835a.466.466 0 0 1-.465.465M20.313 172.627a.465.465 0 0 1-.466-.465v-1.835a.466.466 0 0 1 .931 0v1.835a.465.465 0 0 1-.465.465M21.194 168.98c0-.256.208-.465.465-.465h1.835a.466.466 0 0 1 0 .93h-1.835a.465.465 0 0 1-.465-.464" fill="#00ADF6"/>
        <g transform="translate(16.667 168.515)">
            <mask id="dd9ma2gy2b" fill="#fff">
                <use xlink:href="#fp14flc9sa"/>
            </mask>
            <path d="M0 .466C0 .208.208 0 .465 0H2.3a.465.465 0 0 1 0 .93H.465A.465.465 0 0 1 0 .467" fill="#00ADF6" mask="url(#dd9ma2gy2b)"/>
        </g>
        <path d="M26.497 72.404a.466.466 0 0 1-.466-.466v-1.834a.466.466 0 0 1 .931 0v1.834a.466.466 0 0 1-.465.466M26.497 76.93a.465.465 0 0 1-.466-.465V74.63a.465.465 0 0 1 .931 0v1.835a.465.465 0 0 1-.465.465M27.377 73.284c0-.256.209-.465.466-.465h1.835a.465.465 0 0 1 0 .931h-1.835a.465.465 0 0 1-.466-.466M22.85 73.284c0-.256.21-.465.466-.465h1.835a.466.466 0 0 1 0 .931h-1.835a.466.466 0 0 1-.466-.466" fill="#00ADF6"/>
        <path d="M197.86 93.603h16.142a2.774 2.774 0 0 0 2.774-2.774v-5.763a2.774 2.774 0 0 0-2.774-2.775h-13.367a2.774 2.774 0 0 0-2.774 2.775v8.537z" fill="#16355A"/>
        <path d="M211.796 87.947a1.124 1.124 0 1 0 2.247 0 1.124 1.124 0 0 0-2.247 0M206.541 87.947a1.124 1.124 0 1 0 2.247 0 1.124 1.124 0 0 0-2.247 0M201.286 87.947a1.124 1.124 0 1 0 2.247 0 1.124 1.124 0 0 0-2.247 0" fill="#FFF"/>
        <path d="M197.86 93.603h5.084l-3.934 3.5a.69.69 0 0 1-1.15-.516v-2.984z" fill="#16355A"/>
        <path d="M216.37 166.717a2.327 2.327 0 1 1-4.654 0 2.327 2.327 0 0 1 4.654 0" fill="#FFF"/>
        <g transform="translate(228.68 94.951)">
            <mask id="ug3rt78pqd" fill="#fff">
                <use xlink:href="#igbk73x8kc"/>
            </mask>
            <path d="M4.654 2.327a2.327 2.327 0 1 1-4.655 0 2.327 2.327 0 0 1 4.655 0" fill="#C4EEFE" mask="url(#ug3rt78pqd)"/>
        </g>
        <path d="M65.25 43.69a2.327 2.327 0 1 1-4.655 0 2.327 2.327 0 0 1 4.654 0" fill="#C4EEFE"/>
        <path d="M147.001 57.742a2.327 2.327 0 1 1-4.653 0 2.327 2.327 0 0 1 4.653 0" fill="#FFF"/>
        <path d="M31.161 121.514c-.7.163-1.363.078-1.99-.253-.628-.331-1.036-.904-1.225-1.719-.168-.722-.057-1.388.333-1.998.39-.61.952-1.002 1.687-1.173.722-.168 1.388-.062 1.996.316.608.378.996.93 1.164 1.651.186.803.074 1.493-.335 2.072-.41.579-.953.947-1.63 1.104m-12.78-16.897c-.254-1.09-.16-2.274.279-3.555.44-1.28 1.245-2.444 2.417-3.49 1.171-1.045 2.652-1.777 4.441-2.193 1.664-.387 3.204-.421 4.62-.104s2.594.923 3.533 1.816a6.305 6.305 0 0 1 1.841 3.198c.227.975.227 1.875.002 2.701a8.045 8.045 0 0 1-.969 2.228c-.421.66-1.19 1.785-2.307 3.374-.309.446-.548.831-.72 1.156-.173.324-.291.611-.353.86-.064.251-.1.496-.111.734-.011.238-.015.653-.01 1.244.06 1.243-.484 1.998-1.632 2.265-.596.138-1.144.06-1.641-.235-.498-.295-.837-.827-1.015-1.595-.224-.963-.27-1.832-.135-2.606a6.54 6.54 0 0 1 .755-2.134c.37-.648.887-1.436 1.554-2.364a37.029 37.029 0 0 0 1.254-1.824c.25-.403.442-.83.572-1.284.131-.453.141-.915.032-1.385-.213-.918-.735-1.612-1.564-2.084-.83-.472-1.783-.582-2.861-.331-1.263.293-2.118.827-2.566 1.602-.448.775-.735 1.83-.86 3.164-.09 1.387-.679 2.206-1.768 2.46a2.24 2.24 0 0 1-1.785-.302c-.547-.35-.881-.789-1.004-1.316M42.04 129.245a2.416 2.416 0 0 1-1.524-.847c-.399-.47-.543-1.063-.433-1.78a2.183 2.183 0 0 1 .915-1.505c.511-.366 1.09-.5 1.737-.4.637.097 1.14.397 1.507.898.369.502.504 1.07.406 1.708-.108.707-.421 1.227-.938 1.562a2.332 2.332 0 0 1-1.67.364m-4.85-17.75c.148-.96.606-1.885 1.374-2.776.767-.89 1.793-1.568 3.075-2.033 1.282-.465 2.712-.577 4.29-.334 1.465.225 2.718.694 3.757 1.407 1.04.713 1.793 1.582 2.262 2.605a5.476 5.476 0 0 1 .452 3.173c-.132.859-.422 1.585-.87 2.178a7 7 0 0 1-1.501 1.484c-.552.396-1.535 1.054-2.95 1.975-.392.26-.71.494-.954.7a3.385 3.385 0 0 0-.562.58 3.23 3.23 0 0 0-.326.554 22.87 22.87 0 0 0-.41 1c-.353 1.022-1.035 1.455-2.047 1.3-.525-.08-.941-.32-1.248-.72-.306-.398-.406-.936-.302-1.613.13-.849.374-1.564.732-2.146a5.683 5.683 0 0 1 1.299-1.475c.506-.404 1.179-.872 2.016-1.405a32.524 32.524 0 0 0 1.6-1.065c.331-.244.624-.528.875-.85a2.36 2.36 0 0 0 .473-1.107c.124-.809-.072-1.537-.588-2.185-.517-.649-1.25-1.046-2.2-1.192-1.112-.17-1.974-.016-2.586.464-.612.48-1.184 1.238-1.715 2.274-.52 1.088-1.26 1.559-2.22 1.412a1.947 1.947 0 0 1-1.341-.82c-.328-.459-.456-.92-.385-1.385" fill="#16355A"/>
    </g>
</svg>
