<svg width="280" height="280" viewBox="0 0 280 280" xmlns="http://www.w3.org/2000/svg" xmlns:xlink="http://www.w3.org/1999/xlink">
    <defs>
        <path id="8v6p9p683a" d="M0 0h52.37v40.719H0z"/>
        <path id="2wfoq967rc" d="M0 238.225h233.333V0H0z"/>
    </defs>
    <g transform="translate(23.333 20.533)" fill="none" fill-rule="evenodd">
        <path d="M104.255 225.132c-65.06.538-102.962-25.037-98.188-78.456 4.774-53.419 61.774-34.384 103.28-52.8C150.852 75.457 189.2 36.848 216.63 65.603c32.809 34.391 10.105 91.91-7.242 112.792-22.099 26.603-57.373 46.34-105.134 46.736" fill="#EEF8FF"/>
        <path d="M144.96 48.17s-5.813 25.1-41.991 36.205c-30.035 9.22-70.305 11.142-69.797-24.084.508-35.226 45.011-25.103 59.6-26.55 14.59-1.445 55.322-18.385 52.187 14.43" fill="#EEF8FF"/>
        <path d="M123.749 214.673c.083-.006 8.413-.709 19.617-4.346 10.341-3.356 25.332-9.972 38.024-22.433 20.383-20.01 32.72-51.218 32.841-51.53l-1.068-.418c-.122.311-12.372 31.294-32.577 51.13-23.978 23.54-56.603 26.427-56.93 26.454l.093 1.143z" fill="#D7E8F2"/>
        <path d="M211.535 141.619s6.05-5.672 9.156-11.94c3.106-6.268-3.626-11.88-6.393-2.842-2.842 9.28-2.763 14.782-2.763 14.782M205.802 152.008s6.348 3.01 11.939 3.193c5.591.184 6.813-8.003-.569-6.766-7.579 1.27-11.37 3.573-11.37 3.573" fill="#D7E8F2"/>
        <path d="M206.381 152.09s-5.844-3.9-8.874-8.602c-3.031-4.702 3.364-9.957 6.096-2.99 2.805 7.156 2.778 11.591 2.778 11.591M198.016 165.339s6.263 3.183 11.847 3.52c5.584.337 7.03-7.813-.382-6.78-7.612 1.062-11.465 3.26-11.465 3.26" fill="#D7E8F2"/>
        <path d="M198.593 165.436s-5.735-4.058-8.635-8.841c-2.9-4.784 3.637-9.861 6.176-2.82 2.608 7.228 2.46 11.66 2.46 11.66M187.633 179.699s6.139 3.416 11.706 3.962c5.568.547 7.319-7.543-.127-6.788-7.646.775-11.58 2.826-11.58 2.826" fill="#D7E8F2"/>
        <path d="M188.206 179.817s-5.579-4.27-8.297-9.159c-2.719-4.889 4.004-9.717 6.278-2.586 2.334 7.321 2.019 11.745 2.019 11.745M174.392 193.08s5.334 4.571 10.681 6.216c5.347 1.645 8.676-5.933 1.228-6.678-7.646-.764-11.91.462-11.91.462" fill="#D7E8F2"/>
        <path d="M174.93 193.31s-4.616-5.296-6.306-10.629c-1.69-5.333 5.861-8.724 6.668-1.283.828 7.64-.363 11.913-.363 11.913M158.985 202.867s4.876 5.059 10.041 7.206c5.166 2.147 9.201-5.08 1.859-6.53-7.54-1.49-11.9-.676-11.9-.676" fill="#D7E8F2"/>
        <path d="M159.499 203.148s-4.09-5.712-5.264-11.181c-1.174-5.47 6.666-8.127 6.76-.643.096 7.684-1.496 11.824-1.496 11.824M108.969 219.189c-.083-.012-8.357-1.207-19.325-5.503-10.124-3.965-24.695-11.46-36.625-24.651-19.159-21.186-29.62-53.07-29.724-53.39l1.092-.353c.102.317 10.492 31.973 29.483 52.973 22.539 24.923 54.934 29.742 55.259 29.787l-.16 1.137z" fill="#D7E8F2"/>
        <path d="M25.675 141.051s-5.702-6.021-8.43-12.462c-2.729-6.442 4.323-11.644 6.55-2.458 2.286 9.433 1.88 14.92 1.88 14.92M30.781 151.762s-6.515 2.628-12.107 2.48c-5.593-.15-6.326-8.394.969-6.721 7.49 1.718 11.138 4.241 11.138 4.241" fill="#D7E8F2"/>
        <path d="M30.198 151.809s6.065-3.545 9.37-8.059c3.304-4.514-2.768-10.14-5.909-3.346-3.225 6.975-3.461 11.405-3.461 11.405M37.761 165.532s-6.44 2.805-12.034 2.81c-5.595.005-6.554-8.216.784-6.744 7.535 1.512 11.25 3.934 11.25 3.934" fill="#D7E8F2"/>
        <path d="M37.18 165.595s5.965-3.71 9.144-8.313c3.18-4.603-3.044-10.06-5.997-3.183-3.032 7.061-3.147 11.496-3.147 11.496M47.274 180.483s-6.33 3.046-11.92 3.26c-5.59.216-6.859-7.964.53-6.768 7.586 1.227 11.39 3.508 11.39 3.508" fill="#D7E8F2"/>
        <path d="M46.695 180.567s5.822-3.931 8.826-8.65c3.004-4.72-3.42-9.938-6.113-2.955-2.765 7.17-2.713 11.605-2.713 11.605M59.697 194.627s-5.597 4.246-11.032 5.57c-5.435 1.326-8.308-6.437-.83-6.738 7.68-.31 11.862 1.168 11.862 1.168" fill="#D7E8F2"/>
        <path d="M59.147 194.825s4.921-5.013 6.925-10.236c2.003-5.223-5.333-9.057-6.58-1.677-1.28 7.577-.345 11.913-.345 11.913M74.495 205.311s-5.167 4.76-10.45 6.597c-5.285 1.837-8.884-5.616-1.468-6.629 7.614-1.04 11.918.032 11.918.032" fill="#D7E8F2"/>
        <path d="M73.966 205.561s4.421-5.459 5.918-10.85c1.497-5.39-6.172-8.507-6.71-1.042-.552 7.665.792 11.892.792 11.892M129.83 170.631c3.311 2.526-.174 15.598 3.218 12.894 3.393-2.703.757-6.999.413-15.273-.343-8.275 4.276-18.156 8.656-15.487 4.38 2.67-3.407 15.64 1.005 12.98 4.411-2.661 4.725-10.076 6.92-15.096 2.734-6.25 9.238-11.114 13.004-7.775 4.079 3.056 2.46 10.294-2.867 16.717-3.43 4.135-9.397 6.348-10.59 11.782-1.193 5.435 8.086-6.248 11.506-2.194s-3.98 11.538-11.241 13.257c-7.26 1.72-11.651-.04-13.138 4.305-1.488 4.346 8.966-2.72 11.991.216 3.025 2.936-3.67 9.239-10.458 10.885-6.789 1.647-11.464 3.983-14.531 8.351-2.667 3.797-4.464 1.91-4.888 1.352-.687-.755-1.264-2.289.634-5.072 3.013-4.415 3.858-10.054 3.57-17.8-.288-7.746 3.486-16.567 6.797-14.042" fill="#D7E8F2"/>
        <path d="M194.032 70.648h-40.706a9.004 9.004 0 0 1-9.004-9.004V34a9.004 9.004 0 0 1 9.004-9.004h40.706A9.004 9.004 0 0 1 203.036 34v27.644a9.004 9.004 0 0 1-9.004 9.004" fill="#A7A7A7"/>
        <path d="M196.456 68.224H155.75a9.004 9.004 0 0 1-9.005-9.004V31.577a9.004 9.004 0 0 1 9.005-9.004h40.706a9.004 9.004 0 0 1 9.003 9.004V59.22a9.004 9.004 0 0 1-9.003 9.004" fill="#C4EEFE"/>
        <path d="M185.799 49.273h1.077a2.54 2.54 0 0 1 2.54 2.54v11.426h-6.157V51.813a2.54 2.54 0 0 1 2.54-2.54M173.777 44.426h1.078a2.54 2.54 0 0 1 2.54 2.54v16.273h-6.158V46.965a2.54 2.54 0 0 1 2.54-2.54M161.755 39.578h1.078a2.54 2.54 0 0 1 2.54 2.54v21.121h-6.158V42.118a2.54 2.54 0 0 1 2.54-2.54" fill="#00ADF6"/>
        <path d="M198.586 63.845h-45.5V30.192a.606.606 0 0 1 1.212 0v32.441h44.288a.606.606 0 1 1 0 1.212" fill="#344551"/>
        <path d="m195.98 45.69-6.477.74a1.335 1.335 0 0 1-1.476-1.172 1.335 1.335 0 0 1 1.173-1.476l2.67-.305c-12.699-9.225-31.397-11.544-31.597-11.567a1.334 1.334 0 0 1 .005-2.649 1.34 1.34 0 0 1 .309.001c.208.024 19.65 2.428 32.95 12.133l-.305-2.673a1.334 1.334 0 0 1 1.173-1.475 1.335 1.335 0 0 1 1.476 1.173l.74 6.465.082.722-.723.083z" fill="#16355A"/>
        <g transform="translate(0 59.597)">
            <mask id="grruiuix3b" fill="#fff">
                <use xlink:href="#8v6p9p683a"/>
            </mask>
            <path d="M43.366 40.719H9.004A9.004 9.004 0 0 1 0 31.715V9.005A9.004 9.004 0 0 1 9.004 0h34.362a9.004 9.004 0 0 1 9.003 9.004v22.71a9.004 9.004 0 0 1-9.003 9.005" fill="#A7A7A7" mask="url(#grruiuix3b)"/>
        </g>
        <path d="M45.527 98.154H11.166a9.004 9.004 0 0 1-9.004-9.004V66.44a9.004 9.004 0 0 1 9.004-9.004h34.361a9.004 9.004 0 0 1 9.004 9.004v22.71a9.004 9.004 0 0 1-9.004 9.004" fill="#C4EEFE"/>
        <mask id="mb5me6otrd" fill="#fff">
            <use xlink:href="#2wfoq967rc"/>
        </mask>
        <path fill="#A7A7A7" mask="url(#mb5me6otrd)" d="M10.136 93.71h.71V62.362h-.71zM28.053 93.71h.71V62.362h-.71zM45.97 93.71h.71V62.362h-.71z"/>
        <path d="M49.643 91.827a.5.5 0 0 1-.429-.241l-5.001-8.264-4.485 5.314a.478.478 0 0 1-.393.177.501.501 0 0 1-.385-.192l-3.698-4.758-2.154 2.06a.5.5 0 0 1-.76-.08l-5.918-8.692-1.677 3.606a.492.492 0 0 1-.487.288.5.5 0 0 1-.445-.35l-.568-1.823-1.434 1.049a.499.499 0 0 1-.75-.194l-2.454-5.309-4.214 3.207a.5.5 0 0 1-.687-.077l-7.219-8.64a.5.5 0 0 1 .768-.642l6.913 8.273 4.329-3.295a.503.503 0 0 1 .757.189l2.46 5.319 1.505-1.102a.5.5 0 0 1 .774.255l.39 1.255 1.503-3.23a.5.5 0 0 1 .868-.07l6.081 8.932 2.128-2.036a.5.5 0 0 1 .741.054l3.66 4.708 4.535-5.374a.5.5 0 0 1 .81.064l5.364 8.86a.5.5 0 0 1-.428.76" fill="#344551" mask="url(#mb5me6otrd)"/>
        <path d="M50.885 83.552a.5.5 0 0 1-.3-.099l-6.214-4.64-5.33 1.623a.5.5 0 0 1-.608-.286l-3.565-8.502-10.484 1.524a.499.499 0 0 1-.57-.442l-.551-5.048-8.66 3.872a.5.5 0 0 1-.58-.124l-5.805-6.543a.5.5 0 1 1 .749-.664l5.562 6.268 8.952-4.004a.5.5 0 0 1 .702.403l.57 5.216 10.355-1.504a.504.504 0 0 1 .533.302l3.54 8.442 5.14-1.565a.508.508 0 0 1 .446.078l6.418 4.791a.5.5 0 0 1-.3.902M198.128 217.98h-.224a.527.527 0 0 1-.526-.527v-2.742c0-.29.236-.526.526-.526h.224c.291 0 .527.235.527.526v2.742c0 .291-.236.527-.527.527M198.128 224.193h-.224a.527.527 0 0 1-.526-.527v-2.742c0-.29.236-.526.526-.526h.224c.291 0 .527.235.527.526v2.742c0 .291-.236.527-.527.527M199.225 219.3v-.223c0-.291.236-.527.527-.527h2.742c.29 0 .527.236.527.527v.223c0 .291-.236.527-.527.527h-2.742a.527.527 0 0 1-.527-.527M193.012 219.3v-.223c0-.291.236-.527.527-.527h2.742c.29 0 .527.236.527.527v.223c0 .291-.236.527-.527.527h-2.742a.527.527 0 0 1-.527-.527M206.493 96.946h-.224a.527.527 0 0 1-.526-.527v-2.742c0-.291.235-.527.526-.527h.224c.29 0 .527.236.527.527v2.742c0 .29-.236.527-.527.527M206.493 103.159h-.224a.527.527 0 0 1-.526-.527V99.89c0-.291.235-.527.526-.527h.224c.29 0 .527.236.527.527v2.742a.527.527 0 0 1-.527.527M207.59 98.266v-.223c0-.292.236-.527.527-.527h2.742c.29 0 .526.235.526.527v.223a.527.527 0 0 1-.526.527h-2.742a.527.527 0 0 1-.527-.527M201.377 98.266v-.223c0-.292.236-.527.527-.527h2.742c.29 0 .526.235.526.527v.223a.527.527 0 0 1-.526.527h-2.742a.527.527 0 0 1-.527-.527M21.276 199.14h-.224a.527.527 0 0 1-.526-.526v-2.742c0-.29.236-.526.526-.526h.224c.291 0 .527.235.527.526v2.742c0 .291-.236.527-.527.527M21.276 205.354h-.224a.527.527 0 0 1-.526-.527v-2.742c0-.29.236-.526.526-.526h.224c.291 0 .527.235.527.526v2.742c0 .291-.236.527-.527.527M22.373 200.461v-.223c0-.291.236-.527.527-.527h2.742c.29 0 .527.236.527.527v.223c0 .291-.236.527-.527.527H22.9a.527.527 0 0 1-.527-.527M16.16 200.461v-.223c0-.291.236-.527.527-.527h2.742c.29 0 .527.236.527.527v.223c0 .291-.236.527-.527.527h-2.742a.527.527 0 0 1-.527-.527M65.099 39.67h-.224a.527.527 0 0 1-.526-.527V36.4c0-.29.235-.527.526-.527h.224c.29 0 .527.236.527.527v2.742c0 .29-.236.527-.527.527M65.099 45.882h-.224a.527.527 0 0 1-.526-.526v-2.742c0-.291.235-.527.526-.527h.224c.29 0 .527.236.527.527v2.742c0 .29-.236.526-.527.526M66.196 40.99v-.223c0-.291.236-.527.527-.527h2.742c.29 0 .526.236.526.527v.223c0 .291-.235.527-.526.527h-2.742a.527.527 0 0 1-.527-.527M59.983 40.99v-.223c0-.291.236-.527.527-.527h2.742c.29 0 .527.236.527.527v.223c0 .291-.236.527-.527.527H60.51a.527.527 0 0 1-.527-.527" fill="#00ADF6" mask="url(#mb5me6otrd)"/>
        <path d="M182.465 128.567a3.194 3.194 0 1 1-6.387 0 3.194 3.194 0 0 1 6.387 0" fill="#C4EEFE" mask="url(#mb5me6otrd)"/>
        <path d="M46.505 115.085a3.194 3.194 0 1 1-6.387 0 3.194 3.194 0 0 1 6.387 0" fill="#FFF" mask="url(#mb5me6otrd)"/>
        <path d="m75.721 217.017 1.378 15.495c.191 2.148 1.971 3.953 4.14 4.203 4.383.507 18.533 1.366 28.157 1.463 12.895.129 32.522.02 40.798-.658 2.195-.18 3.73-2.015 3.535-4.217l-.454-16.913-77.554.627z" fill="#344551" mask="url(#mb5me6otrd)"/>
        <path d="m78.356 77.964-6.389 2.862a10.811 10.811 0 0 0-6.137 7.54l-12.928 51.71 25.454 4.937v-67.05z" fill="#00ADF6" mask="url(#mb5me6otrd)"/>
        <path fill="#344551" mask="url(#mb5me6otrd)" d="m63.576 138.284 7.374-23.199v28.491z"/>
        <path d="m57.511 130.299 24.074 16.646-11.994 8.28c-3.2 2.21-7.104.696-10.743-1.713-3.734-2.472-5.946-6.684-5.946-11.163v-3.968l4.61-8.082z" fill="#F49187" mask="url(#mb5me6otrd)"/>
        <path d="M129.825 66.72s-8.576-.375-16.803-.453c-8.226-.079-14.537 1.257-14.537 1.257s-2.074 5.012-1.76 9.008c.313 3.997 5.127 7.053 11.654 7.21 6.526.157 15.303-3.135 18.907-5.642 3.605-2.508 2.539-11.38 2.539-11.38" fill="#344551" mask="url(#mb5me6otrd)"/>
        <path d="M128.265 43.975s-1.1 12.34-.59 19.2c.511 6.86 2.994 14.677 2.994 14.677s-7.397 5.918-11.164 8.673c-3.767 2.754-17.305 3.07-19.783-1.332-2.478-4.402-3.186-8.319-3.186-8.319s3.769-7.38 4.808-13.266c1.04-5.885-.106-17.472-.106-17.472l15.498-5.587 11.529 3.426z" fill="#F7958B" mask="url(#mb5me6otrd)"/>
        <path d="M101.344 63.609c1.04-5.886-.106-17.473-.106-17.473l2.081-.902 4.44-.73 17.606 6.25s-7.784 15.24-15.889 20.064c-3.235 1.926-7.306 1.345-10.53.659.702-2.169 1.9-5.05 2.398-7.868" fill="#344551" mask="url(#mb5me6otrd)"/>
        <path d="m147.115 76.48-16.402-4.184s-15.111 9.709-24.682 8.019c-9.57-1.689-8.693-9.404-8.693-9.404l-18.536 6.695s-5.322 15.568-5.7 45.575c-.475 37.797-2.022 76.545-.66 91.333.325 3.522 3.37 6.417 6.926 6.58 12.828.585 46.478 1.514 70.253-1.073 3.044-.331 5.277-2.725 5.364-5.774.717-25.028 2.447-78.61 2.271-103.962-.141-20.416-3.46-30.113-10.141-33.804" fill="#00ADF6" mask="url(#mb5me6otrd)"/>
        <path fill="#344551" mask="url(#mb5me6otrd)" d="M105.195 80.38 94.758 94.097l-.751-2.19zM105.195 80.38l3.655 14.052 2.591-1.166z"/>
        <path d="m104.014 223.162 1.032-.062c-.048-.316-4.796-32.07-3.126-77.414 1.101-29.86 4.495-64.892 4.534-65.232l-1.04-.275c-.04.34-3.44 35.418-4.541 65.328-1.677 45.473 3.091 77.338 3.14 77.655" fill="#344551" mask="url(#mb5me6otrd)"/>
        <path d="M129.825 66.72s-9.94 14.278-24.63 13.66l6.648 13.716s10.091-5.196 14.68-10.349c3.45-3.873 5.35-9.682 5.35-9.682l-2.048-7.345zM105.195 80.38 92.978 92.967s-.411-7.277-.411-11.49c0-4.212.962-9.15.962-9.15l4.956-4.802s-1.524 8.801 6.71 12.857" fill="#C4EEFE" mask="url(#mb5me6otrd)"/>
        <path fill="#F49187" mask="url(#mb5me6otrd)" d="M81.585 107.293 57.51 130.3l1.357 14.103 13.026 5.9 20.799-35.307z"/>
        <path fill="#F49187" mask="url(#mb5me6otrd)" d="m72.658 148.847 20.035-33.852-7.835-5.432z"/>
        <path d="M80.812 91.497s-.133 9.784.513 14.393c.645 4.61 4.408 6.77 9.22 6.88 4.81.11 7.644-2.943 8.216-8.319.572-5.375 1.036-16.26 1.036-16.26s-4.101-1.786-8.062-1.964c-3.962-.177-10.923 5.27-10.923 5.27" fill="#F49187" mask="url(#mb5me6otrd)"/>
        <path d="m94.518 88.922.204-13.067c.016-.997.766-1.844 1.718-1.94l.374-.037c.994-.099 1.846.653 1.912 1.687l1.071 12.626-5.279.73z" fill="#F49187" mask="url(#mb5me6otrd)"/>
        <path d="m94.628 88.436-.173-14.94c-.013-1.142-.993-2.031-2.161-1.962-1.061.064-1.912.902-1.966 1.939l-.857 16.396 5.157-1.433z" fill="#F49187" mask="url(#mb5me6otrd)"/>
        <path d="m89.773 90.6.1-15.283c.007-.984-.76-1.798-1.764-1.872l-.363-.026c-1.101-.081-2.062.755-2.107 1.835l-.704 16.745 4.838-1.399z" fill="#F49187" mask="url(#mb5me6otrd)"/>
        <path d="m85.575 91.495-.154-11.782c-.014-.994-.812-1.814-1.828-1.875-1.065-.065-1.978.722-2.043 1.76l-.755 11.995 4.78-.098zM89.697 110.545s.168-5.953 1.927-10.377c1.759-4.424 7.898-5.497 7.898-5.497s-.377-7.16 1.312-8.497c1.69-1.337 3.396.343 3.144 2.103-.252 1.759.598 7.722.315 10.95-.262 2.995-.903 5.575-2.596 8.062-1.693 2.488-6.98 6.462-12 3.256" fill="#F49187" mask="url(#mb5me6otrd)"/>
        <path d="m101.52 95.71-.048.011c0-.177-.001-.354-.003-.528.03.324.052.516.052.516m5.002 4.178c.085-3.193-1.116-9.002-.973-10.748.143-1.746-1.648-3.29-3.241-1.868-.509.453-.772 1.477-.896 2.66l-.01-.61-1.823-12.348c-.128-1.013-1.018-1.698-1.996-1.538l-.369.06c-.938.155-1.63 1.035-1.585 2.017l.395 8.67-.801-10.973c-.083-1.122-1.108-1.934-2.26-1.792-1.048.13-1.84 1.008-1.831 2.031l.082 9.55-.422-7.708c-.053-.968-.862-1.72-1.861-1.728l-.36-.003c-1.097-.01-1.998.874-1.978 1.938l.094 4.95-.041-.552c-.073-.976-.914-1.731-1.924-1.728-1.06.004-1.916.836-1.918 1.862l-.025 11.842.015-.001c.05.986.507 9.79 1.372 14.026.918 4.492 4.777 6.376 9.55 6.18 1.789-.074 3.275-.566 4.447-1.434 2.928-.736 5.302-3.04 6.273-4.663 1.527-2.553 2.007-5.131 2.086-8.092" fill="#344551" mask="url(#mb5me6otrd)"/>
        <path d="m137.634 74.76 9.396 1.735c6.837 1.513 13.175 14.965 10.583 27.626l-7.237 34.917-1.584 8.438c-.02 2.026-1.084 3.56-2.506 5.004 0 0-3.484 1.445-6.008 1.01-7.953-1.37-24.31-9.305-24.31-9.305l21.666-69.425z" fill="#00ADF6" mask="url(#mb5me6otrd)"/>
        <path d="M118.118 139.13a.527.527 0 0 1-.08-.038c-.701-.4-4.172-2.5-3.624-4.49.457-1.66 3.646-6.087 4.245-6.91.388-1.446 4.876-18.177 7.32-26.568 4.504-15.456 14.952-18.212 15.395-18.321a.547.547 0 1 1 .264 1.063c-.102.026-10.29 2.749-14.606 17.564-2.54 8.719-7.292 26.467-7.34 26.645l-.027.1-.06.082c-1.029 1.406-3.776 5.336-4.134 6.635-.238.865 1.715 2.45 3.111 3.248a.548.548 0 0 1-.464.99" fill="#344551" mask="url(#mb5me6otrd)"/>
        <path d="M130.652 144.402c11.126 2.733 14.276 6.748 14.568 7.326.292.578-3.54 1.446-15.466-1.846-11.927-3.292.898-5.48.898-5.48" fill="#16355A" mask="url(#mb5me6otrd)"/>
        <path d="m101.701 106.917 36.301 39.88s3.761 1.351 5.49 3.141c0 0-8.28 9.302-12.483 9.982-4.204.679-13.205-1.086-16.244-6.093-3.039-5.007-25.598-41.727-25.598-41.727l12.534-5.183z" fill="#FF9F91" mask="url(#mb5me6otrd)"/>
        <path d="M83.417 94.029s.56 9.765 1.53 14.304c.969 4.539 4.873 6.364 9.677 6.057 4.804-.308 7.412-3.599 7.603-9.008.19-5.409-.117-16.3-.117-16.3s-4.215-1.424-8.176-1.257c-3.962.168-10.517 6.204-10.517 6.204" fill="#FF9F91" mask="url(#mb5me6otrd)"/>
        <path d="m96.9 90.27-.722-13.045c-.054-.995.633-1.904 1.576-2.082l.37-.07c.984-.185 1.887.49 2.026 1.515l1.96 12.494-5.21 1.187z" fill="#FF9F91" mask="url(#mb5me6otrd)"/>
        <path d="m96.975 89.776-1.23-14.88c-.093-1.136-1.133-1.938-2.293-1.767-1.053.155-1.841 1.065-1.822 2.104l.304 16.42 5.04-1.877z" fill="#FF9F91" mask="url(#mb5me6otrd)"/>
        <path d="m92.288 92.356-.981-15.246c-.063-.981-.886-1.726-1.892-1.712l-.363.005c-1.104.015-2.002.933-1.97 2.013l.481 16.755 4.725-1.815z" fill="#FF9F91" mask="url(#mb5me6otrd)"/>
        <path d="m88.166 93.612-.987-11.732c-.084-.99-.938-1.737-1.955-1.71-1.066.027-1.92.892-1.912 1.933l.095 12.023 4.759-.514zM93.622 112.245s-.253-5.949 1.187-10.512c1.44-4.563 7.485-6.167 7.485-6.167s-.882-7.105.708-8.585c1.59-1.48 3.409.047 3.282 1.822-.126 1.776 1.142 7.647 1.088 10.89-.049 3.008-.506 5.636-2.017 8.264-1.512 2.627-6.502 7.048-11.733 4.288M128.391 38.503s.923-4.672 5.19-4.434c4.266.237 2.857 12.323-3.037 14.843-5.893 2.52-2.153-10.409-2.153-10.409M95.305 38.788s-1.003-4.656-5.265-4.345c-4.262.311-2.644 12.37 3.292 14.789 5.936 2.418 1.973-10.444 1.973-10.444" fill="#FF9F91" mask="url(#mb5me6otrd)"/>
        <path d="M93.383 22.041s-.287 16.18 1.5 25.318c1.786 9.137 7.034 17.467 17.939 17.373 9.393-.08 14.997-9.568 16.212-17.241 1.214-7.674.67-21.293.844-25.764.175-4.471-3.527-12.954-16.973-12.838-13.445.115-19.531 7.192-19.522 13.152" fill="#FF9F91" mask="url(#mb5me6otrd)"/>
        <path d="m126.426 21.878.07 8.164 1.659 1.192.976 7.129s1.058-5.093 5.54-3.901c0 0 1.216-10.296.747-13.884-.523-4.002-4.22-4.145-6.535-3.503-2.316.641-2.457 4.803-2.457 4.803M96.993 22.131l.07 8.164-1.637 1.221-.853 7.144s-1.146-5.074-5.608-3.805c0 0-.846-9.716-.415-13.309.672-5.586 3.577-4.776 5.903-4.175 2.326.601 2.54 4.76 2.54 4.76" fill="#344551" mask="url(#mb5me6otrd)"/>
        <path d="M93.403 19.645s10.039 1.745 18.204 1.777c8.166.031 16.563-2.112 18.252-2.893 1.69-.781 3.66-3.515 3.54-10.121-.06-3.293-13.802-9.1-23.814-8.34-10.012.759-18.34 8.728-18.34 11.41-.004 5.65 2.158 8.167 2.158 8.167M131.1 43.614l-.045-.003a.553.553 0 0 1-.506-.596c.01-.109.227-2.688.845-4.83.311-1.077 1.06-1.873 1.956-2.078a.552.552 0 1 1 .246 1.078c-.377.086-.901.48-1.14 1.307-.587 2.034-.803 4.589-.805 4.614a.553.553 0 0 1-.55.508M93.06 44.506a.553.553 0 0 1-.55-.498c-.002-.026-.262-2.577-.885-4.6-.174-.566-.512-1.005-.927-1.205-.218-.106-.43-.128-.595-.062a.553.553 0 0 1-.404-1.03c.455-.178.98-.145 1.479.096.692.333 1.24 1.017 1.504 1.876.655 2.13.918 4.706.928 4.815a.552.552 0 0 1-.55.608M118.562 35.976c.008.993.444 1.795.973 1.79.53-.005.951-.813.943-1.806-.009-.993-.445-1.794-.974-1.79-.529.005-.95.813-.942 1.806M103.603 36.484c.008.993.444 1.795.974 1.79.528-.005.95-.813.942-1.806-.009-.993-.445-1.794-.974-1.79-.529.005-.95.813-.942 1.806M121.357 30.913c-1.673 0-3.18-.665-4.253-1.314a.553.553 0 0 1 .573-.946c1.227.743 3.095 1.514 5.025.97a.553.553 0 0 1 .3 1.064c-.56.158-1.11.226-1.645.226M102.03 31.179c-.313 0-.633-.025-.959-.077a.553.553 0 0 1 .177-1.092c1.98.321 3.748-.658 4.882-1.536a.552.552 0 1 1 .677.874c-1.128.873-2.814 1.83-4.778 1.83M112.068 48.499c-.338 0-1.014-.067-1.547-.543-.438-.39-.663-.948-.669-1.655-.005-.587.199-1.168.434-1.841.269-.765.572-1.633.701-2.81.351-3.192.117-8.054.115-8.102a.552.552 0 1 1 1.104-.055c.01.202.24 5-.12 8.279-.143 1.302-.483 2.273-.756 3.053-.21.6-.376 1.072-.372 1.466.003.386.1.66.295.836.34.31.9.264.906.262a.555.555 0 0 1 .601.497.551.551 0 0 1-.49.603c-.025.003-.097.01-.202.01M112.502 57.812c-3.42 0-5.232-2.813-5.308-2.933a.553.553 0 0 1 .935-.59c.025.038 1.583 2.417 4.373 2.417 2.814 0 4.53-2.413 4.547-2.437a.553.553 0 0 1 .908.629c-.082.119-2.05 2.914-5.455 2.914M87.404 83.972l.708 10.393s.556.292.556-.34-1.264-10.053-1.264-10.053M91.623 80.986l.546 10.403s.551.3.561-.331c.01-.632-1.107-10.072-1.107-10.072M96.42 80.986l.547 10.403s.551.3.561-.331c.01-.632-1.107-10.072-1.107-10.072M102.173 91.653s.894 7.495.78 8.987c0 0 .316-2.078.16-3.986-.157-1.908-.94-5.001-.94-5.001" fill="#344551" mask="url(#mb5me6otrd)"/>
        <path d="M91 99.752s-.926-1.722-.701-2.884c.224-1.161 1.177.54.7 2.884M94.82 97.776s-.925-1.722-.701-2.884c.225-1.162 1.178.54.701 2.884M99.183 97.776s-.925-1.722-.7-2.884c.224-1.162 1.177.54.7 2.884" fill="#F49187" mask="url(#mb5me6otrd)"/>
        <path d="M157.242 120.571c.029-3.77.036-7.235.015-10.287-.026-3.677-7.733 33.292-7.733 33.292l7.718-23.005z" fill="#344551" mask="url(#mb5me6otrd)"/>
    </g>
</svg>
