<svg width="280" height="280" viewBox="0 0 280 280" xmlns="http://www.w3.org/2000/svg" xmlns:xlink="http://www.w3.org/1999/xlink">
    <defs>
        <path id="0bzviv5lra" d="M0 0h238.21v171.5H0z"/>
    </defs>
    <g fill="none" fill-rule="evenodd">
        <g transform="translate(18.667 78.358)">
            <mask id="3ct2wzennb" fill="#fff">
                <use xlink:href="#0bzviv5lra"/>
            </mask>
            <path d="M103.853 170.71C46.677 176.978-4.691 145.544.34 91.85 5.374 38.157 65.464 57.29 109.22 38.778c43.756-18.511 84.184-57.319 113.101-28.417 34.587 34.569 5.075 89.197-16.492 117.352-21.566 28.155-50.25 37.326-101.976 42.997" fill="#EEF8FF" mask="url(#3ct2wzennb)"/>
        </g>
        <path d="M165.43 71.196s-6.127 25.23-44.267 36.392c-31.662 9.266-74.116 11.197-73.58-24.21.535-35.407 47.45-25.231 62.83-26.685 15.381-1.454 58.321-18.48 55.017 14.503" fill="#EEF8FF"/>
        <path d="M142.742 228.663c.087-.023 8.86-2.28 20.172-8.19 10.44-5.456 25.257-15.235 36.564-30.841 18.157-25.064 25.692-60.633 25.766-60.99l-1.217-.252c-.074.354-7.559 35.669-25.556 60.512-21.36 29.484-55.69 38.468-56.034 38.556l.305 1.205z" fill="#D7E8F2"/>
        <path d="M223.314 134.745s5.436-7.153 7.622-14.412c2.185-7.257-6.02-12.035-7.344-1.88-1.358 10.429-.278 16.292-.278 16.292M219.068 146.88s7.326 2.067 13.331 1.253c6.007-.815 5.832-9.782-1.83-7.126-7.867 2.728-11.501 5.873-11.501 5.873" fill="#D7E8F2"/>
        <path d="M219.701 146.862s-6.948-3.108-11.035-7.583c-4.088-4.476 1.793-11.246 5.972-4.296 4.29 7.136 5.063 11.88 5.063 11.88M213.161 162.53s7.266 2.267 13.293 1.617c6.026-.65 6.097-9.617-1.635-7.173-7.94 2.511-11.658 5.555-11.658 5.555" fill="#D7E8F2"/>
        <path d="M213.795 162.529s-6.86-3.298-10.824-7.884c-3.963-4.586 2.103-11.193 6.089-4.13 4.092 7.251 4.735 12.014 4.735 12.014M204.665 179.748s7.176 2.539 13.222 2.116c6.047-.423 6.455-9.382-1.364-7.23-8.027 2.211-11.858 5.114-11.858 5.114" fill="#D7E8F2"/>
        <path d="M205.299 179.771s-6.732-3.554-10.52-8.285c-3.79-4.731 2.52-11.105 6.238-3.898 3.818 7.4 4.282 12.183 4.282 12.183M192.94 196.437s6.525 3.918 12.534 4.71c6.01.79 8.195-7.909.105-7.357-8.308.566-12.64 2.647-12.64 2.647" fill="#D7E8F2"/>
        <path d="M193.555 196.586s-5.888-4.824-8.658-10.215c-2.769-5.391 4.684-10.38 6.891-2.577 2.266 8.012 1.767 12.792 1.767 12.792M178.25 209.679s6.123 4.522 12.03 5.882c5.907 1.36 8.911-7.09.804-7.312-8.322-.229-12.834 1.43-12.834 1.43" fill="#D7E8F2"/>
        <path d="M178.85 209.886s-5.402-5.363-7.646-10.994c-2.242-5.63 5.652-9.886 7.105-1.909 1.493 8.192.54 12.903.54 12.903M120.456 236.447c-.086-.027-8.73-2.735-19.72-9.225-10.144-5.988-24.435-16.522-34.917-32.693-16.835-25.97-22.518-61.882-22.573-62.242l1.229-.189c.055.357 5.7 36.012 22.387 61.755 19.803 30.55 53.622 41.3 53.961 41.406l-.367 1.188zM44.857 138.481s-5.059-7.425-6.864-14.786c-1.806-7.361 6.635-11.708 7.43-1.498.817 10.485-.566 16.284-.566 16.284" fill="#D7E8F2"/>
        <path d="M48.47 150.82s-7.423 1.685-13.38.56c-5.955-1.124-5.316-10.07 2.198-7.02 7.715 3.131 11.181 6.46 11.181 6.46" fill="#D7E8F2"/>
        <path d="M47.838 150.77s7.1-2.745 11.414-7.002c4.313-4.257-1.21-11.324-5.742-4.6-4.654 6.905-5.672 11.602-5.672 11.602M53.558 166.754s-7.374 1.888-13.359.928c-5.984-.961-5.59-9.92 2.004-7.079 7.799 2.918 11.355 6.151 11.355 6.151" fill="#D7E8F2"/>
        <path d="M52.924 166.721s7.022-2.938 11.218-7.312c4.196-4.375-1.52-11.286-5.866-4.44-4.463 7.029-5.352 11.752-5.352 11.752M61.15 184.39s-7.297 2.163-13.314 1.428c-6.016-.735-5.96-9.704 1.736-7.149 7.903 2.623 11.578 5.72 11.578 5.72" fill="#D7E8F2"/>
        <path d="M60.516 184.38s6.907-3.2 10.935-7.728c4.029-4.53-1.942-11.222-6.028-4.217-4.196 7.192-4.907 11.945-4.907 11.945M71.996 201.664s-6.72 3.575-12.762 4.053c-6.043.48-7.775-8.321.276-7.35 8.267.995 12.486 3.297 12.486 3.297" fill="#D7E8F2"/>
        <path d="M71.373 201.78s6.13-4.511 9.175-9.752c3.045-5.241-4.14-10.609-6.748-2.93-2.678 7.884-2.427 12.683-2.427 12.683M85.979 215.649s-6.349 4.199-12.318 5.25c-5.969 1.053-8.532-7.542-.425-7.344 8.324.204 12.743 2.094 12.743 2.094" fill="#D7E8F2"/>
        <path d="M85.37 215.824s5.672-5.075 8.204-10.582c2.532-5.507-5.132-10.167-6.997-2.274-1.914 8.103-1.207 12.856-1.207 12.856M94.74 104.952c-4.072 1.605-4.29 15.82-6.946 12.115-2.658-3.705 1.239-7.294 3.956-15.561 2.716-8.267.874-19.581-4.32-18.138-5.193 1.444-1.034 16.789-4.733 12.835-3.7-3.955-1.894-11.541-2.677-17.245-.975-7.103-6.16-13.884-10.925-11.587-5 1.921-5.436 9.702-1.887 17.723 2.285 5.164 7.687 9.11 7.337 14.947-.35 5.837-6.39-8.633-11.009-5.515-4.619 3.119.722 12.806 7.574 16.625 6.85 3.818 11.794 3.297 12.054 8.117.26 4.82-8.289-5.32-12.19-3.218-3.9 2.101 1.066 10.393 7.46 14.003 6.394 3.61 10.455 7.31 12.306 12.606 1.61 4.604 3.967 3.21 4.557 2.768.91-.567 1.933-1.953.81-5.31-1.783-5.328-1.022-11.27 1.487-19.02 2.509-7.75 1.217-17.75-2.854-16.145M184.866 104.002c4.072 1.605 4.29 15.82 6.946 12.115 2.658-3.706-1.238-7.294-3.955-15.561-2.717-8.268-.874-19.582 4.32-18.139 5.193 1.445 1.032 16.79 4.732 12.836 3.7-3.955 1.894-11.541 2.677-17.245.975-7.103 6.16-13.884 10.926-11.588 5 1.922 5.435 9.703 1.886 17.724-2.285 5.164-7.687 9.11-7.336 14.947.349 5.837 6.389-8.633 11.008-5.515 4.619 3.119-.722 12.806-7.574 16.625-6.85 3.818-11.795 3.297-12.054 8.116-.26 4.82 8.29-5.318 12.19-3.217 3.9 2.102-1.066 10.392-7.46 14.002-6.395 3.61-10.454 7.311-12.305 12.607-1.61 4.603-3.968 3.21-4.557 2.767-.91-.566-1.934-1.952-.81-5.31 1.782-5.328 1.022-11.27-1.487-19.02-2.51-7.75-1.219-17.75 2.853-16.144" fill="#D7E8F2"/>
        <path d="M221.236 228.68a.658.658 0 0 1-.657-.658v-2.593a.657.657 0 1 1 1.315 0v2.593a.658.658 0 0 1-.658.658M221.236 235.077a.657.657 0 0 1-.657-.657v-2.594a.658.658 0 0 1 1.315 0v2.594a.657.657 0 0 1-.658.657M222.48 229.924c0-.363.296-.657.659-.657h2.593a.657.657 0 1 1 0 1.315h-2.593a.658.658 0 0 1-.658-.658M216.083 229.924c0-.363.295-.657.658-.657h2.593a.657.657 0 1 1 0 1.315h-2.593a.657.657 0 0 1-.658-.658M94.081 34.708a.657.657 0 0 1-.657-.657v-2.594a.658.658 0 0 1 1.315 0v2.594a.658.658 0 0 1-.658.657M94.081 41.106a.657.657 0 0 1-.657-.658v-2.593a.657.657 0 1 1 1.315 0v2.593a.658.658 0 0 1-.658.658M95.326 35.953c0-.363.295-.658.658-.658h2.593a.658.658 0 1 1 0 1.316h-2.593a.658.658 0 0 1-.658-.658M88.928 35.953c0-.363.295-.658.658-.658h2.593a.657.657 0 1 1 0 1.316h-2.593a.658.658 0 0 1-.658-.658M191.652 39.136a.658.658 0 0 1-.657-.658v-2.593a.657.657 0 1 1 1.314 0v2.593a.658.658 0 0 1-.657.658M191.652 45.534a.657.657 0 0 1-.657-.658v-2.593a.657.657 0 1 1 1.314 0v2.593a.657.657 0 0 1-.657.658M192.896 40.38c0-.362.295-.657.658-.657h2.593a.658.658 0 0 1 0 1.315h-2.593a.657.657 0 0 1-.658-.657M186.499 40.38c0-.362.294-.657.657-.657h2.593a.658.658 0 0 1 0 1.315h-2.593a.657.657 0 0 1-.657-.657M31.082 197.047a.658.658 0 0 1-.657-.657v-2.594a.657.657 0 1 1 1.315 0v2.594a.658.658 0 0 1-.658.657M31.082 203.444a.657.657 0 0 1-.657-.657v-2.593a.658.658 0 1 1 1.315 0v2.593a.657.657 0 0 1-.658.657M32.327 198.291c0-.363.294-.657.657-.657h2.594a.657.657 0 1 1 0 1.315h-2.594a.657.657 0 0 1-.657-.658M25.93 198.291c0-.363.293-.657.657-.657h2.593a.658.658 0 1 1 0 1.315h-2.593a.657.657 0 0 1-.658-.658" fill="#00ADF6"/>
        <path d="M261.333 182.774a3.289 3.289 0 1 1-6.577 0 3.289 3.289 0 0 1 6.577 0M34.371 92.121a3.289 3.289 0 1 1-6.578 0 3.289 3.289 0 0 1 6.578 0" fill="#C4EEFE"/>
        <path d="M177.371 243.11H93.76a9.32 9.32 0 0 1-9.32-9.32V70.826a9.32 9.32 0 0 1 9.32-9.32h83.612a9.32 9.32 0 0 1 9.32 9.32V233.79a9.32 9.32 0 0 1-9.32 9.32" fill="#16355A"/>
        <path d="M183.749 243.11h-83.613a9.32 9.32 0 0 1-9.32-9.32V70.826a9.32 9.32 0 0 1 9.32-9.32h83.613a9.32 9.32 0 0 1 9.32 9.32V233.79a9.32 9.32 0 0 1-9.32 9.32" fill="#00ADF6"/>
        <path d="M183.045 223.218H100.84a4.29 4.29 0 0 1-4.29-4.29V76.158a4.29 4.29 0 0 1 4.29-4.29h82.204a4.29 4.29 0 0 1 4.289 4.29v142.772a4.29 4.29 0 0 1-4.29 4.29" fill="#FFF"/>
        <path d="M156.568 73.993h-29.25a2.003 2.003 0 0 1-2.004-2.002v-.15c0-1.107.897-2.004 2.003-2.004h29.25c1.108 0 2.004.897 2.004 2.004v.15a2.003 2.003 0 0 1-2.003 2.002" fill="#00ADF6"/>
        <path d="M149.572 233.264a6.246 6.246 0 1 1-12.493 0 6.246 6.246 0 0 1 12.493 0" fill="#16355A"/>
        <path d="m142.615 121.165 9.297-8.669c2.23-2.079 5.867-1.09 6.737 1.831l3.762 12.632 11-1.504c2.936-.401 5.318 2.344 4.506 5.195l-3.272 11.478 8.766 5.983c2.39 1.63 2.39 5.154 0 6.784l-8.766 5.983 3.272 11.48c.812 2.85-1.57 5.595-4.506 5.194l-11-1.504-3.762 12.632c-.87 2.92-4.508 3.91-6.737 1.83l-9.297-8.668-9.297 8.669c-2.23 2.079-5.867 1.09-6.736-1.831l-3.763-12.632-11 1.504c-2.936.401-5.318-2.345-4.506-5.195l3.272-11.479-8.766-5.983c-2.389-1.63-2.389-5.153 0-6.784l8.766-5.983-3.272-11.478c-.812-2.851 1.57-5.596 4.506-5.195l11 1.504 3.763-12.632c.87-2.92 4.507-3.91 6.736-1.83l9.297 8.668zM117.045 87.76l4.323-2.273c1.272-.668 2.757.411 2.514 1.826l-.826 4.813 3.498 3.41c1.028 1.002.46 2.748-.96 2.955l-4.834.703-2.161 4.379c-.635 1.288-2.471 1.288-3.107 0l-2.161-4.38-4.834-.702c-1.42-.207-1.988-1.953-.96-2.955l3.497-3.41-.825-4.813c-.243-1.415 1.243-2.494 2.514-1.826l4.322 2.273zM175.25 96.367l4.338 2.244c1.275.66 1.24 2.496-.06 3.107l-4.419 2.078-.794 4.818c-.233 1.417-1.99 1.951-2.972.905L168 105.957l-4.829.734c-1.42.216-2.47-1.29-1.778-2.548l2.354-4.279-2.19-4.365c-.645-1.284.463-2.748 1.873-2.478l4.797.916 3.475-3.432c1.022-1.009 2.757-.408 2.936 1.016l.61 4.846zM146.087 201.564l4.82-.787c1.418-.231 2.485 1.262 1.807 2.528l-2.308 4.305 2.239 4.341c.658 1.276-.433 2.753-1.847 2.499l-4.806-.864-3.438 3.469c-1.01 1.02-2.752.439-2.947-.983l-.663-4.84-4.363-2.196c-1.282-.646-1.268-2.482.025-3.106l4.397-2.127.74-4.828c.218-1.418 1.969-1.972 2.963-.936l3.381 3.525z" fill="#C4EEFE"/>
        <path d="m201.163 163.794-53.485 7.701c-7.126.871-13.409-4.69-13.409-11.87v-16.202c0-6.81 5.678-12.244 12.48-11.948l54.414 2.374v29.945z" fill="#FF9F91"/>
        <path d="M201.163 163.6c-11.392 1.278-28.826 3.247-33.447 3.855-7.025.922-22.301 2.688-29.236-3.09a39.604 39.604 0 0 1-4.193-4.08c.372 6.857 6.485 12.055 13.391 11.21l53.485-7.701v-.193z" fill="#F29086"/>
        <path d="M245.321 125.841c-3.273-3.076-20.149-2.308-23.459-1.103-3.31 1.206-2.197 9.662 3.02 9.437 5.217-.224 17.543-.024 19.532-1.545 1.99-1.521.907-6.789.907-6.789" fill="#344551"/>
        <path d="M196.064 156.88c1.004 5.594 5.45 8.606 12.907 9.466 7.457.86 26.54 1.29 26.54 1.29v-36.172s-13.346 1.467-17.648-2.118c-4.303-3.586-16.747 3.585-18.986 7.744-2.24 4.16-2.813 19.79-2.813 19.79" fill="#FF9F91"/>
        <path d="M196.073 138.263s.588-7.204 2.633-13.297c2.045-6.093 12.706-7.355 15.371-9.18 2.666-1.823 3.227-16.272 3.508-17.815.28-1.543 7.715-2.525 8.557 1.122.841 3.647 1.628 9.668 0 14.87-1.627 5.203-2.525 7.155-2.525 12.486 0 5.33.717 15.724-6.032 19.804-6.75 4.078-18.473 3.903-21.512 3.202-3.038-.702 0-11.192 0-11.192" fill="#FF9F91"/>
        <path d="M235.511 167.637v-36.173s-6.303.935-11.796 0c.314-2.83.5-4.24-.072-6.512-.726 1.938-3.448 10.328-4.82 12.923-5.41 10.227-14.396 11.852-14.396 11.852s8.054.534 13.157-3.475c0 0 2.98 1.802 3.456 3.592s1.714 9.22-1.238 12.458c-2.953 3.239-16.298 1.926-18.94.638-2.643-1.287-4.14-1.779-.022.934 2.089 1.275 4.809 2.089 8.13 2.472 7.459.861 26.541 1.29 26.541 1.29" fill="#F29086"/>
        <path d="m241.853 149.176-16.127-.387c-2.014-.048-3.621-1.782-3.621-3.904v-3.917c0-2.122 1.607-3.855 3.62-3.904l16.128-.386c2.283-.055 4.162 1.88 4.162 4.288v3.922c0 2.407-1.879 4.343-4.162 4.288" fill="#E57E73"/>
        <path d="m241.853 159.05-16.127-.354c-2.014-.045-3.621-1.628-3.621-3.566v-3.578c0-1.939 1.607-3.523 3.62-3.567l16.128-.353c2.283-.05 4.162 1.718 4.162 3.917v3.583c0 2.2-1.879 3.967-4.162 3.918" fill="#E57E73"/>
        <path d="m239.502 167.755-14.137-.31c-1.764-.038-3.174-1.426-3.174-3.126v-3.136c0-1.7 1.41-3.088 3.174-3.126l14.137-.31c2.003-.044 3.65 1.506 3.65 3.433v3.142c0 1.927-1.647 3.477-3.65 3.433" fill="#E57E73"/>
        <path d="m242.81 149.176-16.128-.387c-2.012-.048-3.62-1.782-3.62-3.904v-3.917c0-2.122 1.608-3.855 3.62-3.904l16.128-.386c2.283-.055 4.162 1.88 4.162 4.288v3.922c0 2.407-1.879 4.343-4.162 4.288" fill="#FF9F91"/>
        <path d="m242.81 159.05-16.128-.354c-2.012-.045-3.62-1.628-3.62-3.566v-3.578c0-1.939 1.608-3.523 3.62-3.567l16.128-.353c2.283-.05 4.162 1.718 4.162 3.917v3.583c0 2.2-1.879 3.967-4.162 3.918" fill="#FF9F91"/>
        <path d="m240.46 167.755-14.138-.31c-1.765-.038-3.175-1.426-3.175-3.126v-3.136c0-1.7 1.41-3.088 3.175-3.126l14.138-.31c2.001-.044 3.649 1.506 3.649 3.433v3.142c0 1.927-1.648 3.477-3.65 3.433" fill="#FF9F91"/>
        <path d="m229.62 125.913-1.904.035c-2.655.048-4.775 1.782-4.775 3.904v3.917c0 2.122 2.12 3.856 4.775 3.904h.002c-1.575-2.264-1.452-5.09-1.017-7.918.255-1.66 1.56-2.936 2.92-3.842" fill="#E57E73"/>
        <path d="m243.778 138.06-16.128-.387c-2.012-.048-3.62-1.782-3.62-3.905v-3.916c0-2.122 1.608-3.856 3.62-3.904l16.128-.387c2.283-.055 4.162 1.882 4.162 4.288v3.923c0 2.407-1.88 4.342-4.162 4.288" fill="#FF9F91"/>
        <path d="M230.099 133.97v-4.32c0-1.65.801-3.086 1.98-3.809l-4.428.107c-2.014.048-3.621 1.782-3.621 3.904v3.916c0 2.123 1.607 3.857 3.62 3.905l4.428.106c-1.178-.723-1.98-2.157-1.98-3.808" fill="#F29086"/>
        <path d="M227.293 145.087v-4.32c0-1.651.599-3.086 1.48-3.809l-3.311.106c-1.506.049-2.708 1.783-2.708 3.905v3.916c0 2.122 1.202 3.856 2.708 3.904l3.31.106c-.88-.723-1.479-2.157-1.479-3.808" fill="#F29086"/>
        <path d="M227.293 155.278v-3.733c0-1.425.599-2.664 1.48-3.288l-3.311.092c-1.506.041-2.708 1.539-2.708 3.371v3.383c0 1.833 1.202 3.33 2.708 3.372l3.31.092c-.88-.625-1.479-1.864-1.479-3.29" fill="#F29086"/>
        <path d="M226.596 164.456v-3.401c0-1.3.508-2.43 1.253-2.999l-2.803.084c-1.275.038-2.293 1.403-2.293 3.073v3.084c0 1.67 1.018 3.035 2.293 3.073l2.803.084c-.745-.57-1.253-1.698-1.253-2.998" fill="#F29086"/>
        <path d="m243.778 137.056-16.128-.387c-2.013-.048-3.62-1.782-3.62-3.904v1.003c0 2.123 1.607 3.857 3.62 3.905l16.128.387c2.283.054 4.162-1.881 4.162-4.288v-1.004c0 2.407-1.88 4.343-4.162 4.288M242.658 148.273l-16.714-.387c-2.086-.048-3.754-1.783-3.754-3.905v1.004c0 2.122 1.668 3.856 3.754 3.905l16.714.386c2.367.054 4.315-1.88 4.315-4.288v-1.004c0 2.407-1.948 4.344-4.315 4.289M242.695 158.172l-16.573-.386c-2.069-.049-3.721-1.782-3.721-3.905v1.004c0 2.122 1.652 3.856 3.72 3.904l16.574.387c2.347.055 4.277-1.881 4.277-4.288v-1.004c0 2.407-1.93 4.343-4.277 4.288" fill="#E57E73"/>
    </g>
</svg>
