<svg width="280" height="280" viewBox="0 0 280 280" xmlns="http://www.w3.org/2000/svg">
    <g fill="none" fill-rule="evenodd">
        <path d="M130.34 237.823c-60.262 6.194-102.054-31.048-96.75-84.114 5.305-53.067 56.289-27.983 102.406-46.279 46.118-18.295 92.217-64.495 112.414-13.882 18.516 46.403 12.14 73.953-10.59 101.78-22.731 27.826-52.962 36.89-107.48 42.495" fill="#EEF8FF"/>
        <path d="M175.566 62.027s-6.458 24.935-46.657 35.967c-33.371 9.158-78.116 11.067-77.551-23.927.564-34.994 50.011-24.937 66.222-26.374 16.21-1.436 61.468-18.264 57.986 14.334" fill="#EEF8FF"/>
        <path d="M207.05 198.215c.077-.058 7.843-5.934 16.236-16.072 7.746-9.357 17.64-24.375 20.789-42.786 5.057-29.567-6.44-63.32-6.557-63.658l-1.383.332c.115.336 11.527 33.849 6.515 63.157-5.95 34.783-36.259 57.906-36.564 58.136l.964.891z" fill="#D7E8F2"/>
        <path d="M238.837 81.777s1.704-8.554.021-15.733c-1.683-7.178-12.669-7.562-8.537 1.702 4.243 9.512 8.516 14.03 8.516 14.03M241.044 94.046s8.62-1.533 14.331-4.932c5.712-3.4.689-10.975-5.724-5.258-6.584 5.87-8.607 10.19-8.607 10.19" fill="#D7E8F2"/>
        <path d="M241.683 93.746s-8.796.475-15.4-1.505c-6.605-1.98-4.238-10.406 3.796-6.355 8.25 4.16 11.604 7.86 11.604 7.86M243.448 110.063s8.668-1.335 14.49-4.603c5.82-3.267 1.049-10.954-5.55-5.387-6.775 5.717-8.94 9.99-8.94 9.99" fill="#D7E8F2"/>
        <path d="M244.097 109.777s-8.808.274-15.345-1.856c-6.537-2.13-3.894-10.5 4.004-6.266 8.11 4.347 11.341 8.122 11.341 8.122M244.048 128.585s8.722-1.063 14.686-4.146c5.965-3.083 1.543-10.914-5.302-5.557-7.028 5.501-9.384 9.703-9.384 9.703" fill="#D7E8F2"/>
        <path d="M244.71 128.32s-8.815-.003-15.251-2.336c-6.436-2.332-3.418-10.613 4.284-6.136 7.908 4.597 10.966 8.472 10.966 8.472M241.054 148.11s8.801.406 15.384-1.624c6.582-2.03 4.122-10.439-3.867-6.326-8.204 4.223-11.517 7.95-11.517 7.95" fill="#D7E8F2"/>
        <path d="M241.766 147.96s-8.637-1.467-14.386-4.822c-5.75-3.355-.81-10.969 5.665-5.302 6.65 5.819 8.72 10.124 8.72 10.124M233.163 166.025s8.715 1.104 15.5-.395c6.784-1.498 5.296-10.064-3.127-6.604-8.649 3.553-12.373 6.999-12.373 6.999" fill="#D7E8F2"/>
        <path d="M233.889 165.932s-8.43-2.146-13.77-5.942c-5.339-3.796.448-10.983 6.247-4.828 5.953 6.32 7.523 10.77 7.523 10.77M132.884 206.36c-.086-.01-8.825-1.086-20.47-5.365-10.747-3.95-26.256-11.516-39.111-25.141-20.645-21.88-32.37-55.22-32.485-55.554l1.14-.397c.116.332 11.76 33.433 32.224 55.122 24.286 25.74 58.503 30.094 58.846 30.135l-.144 1.2z" fill="#D7E8F2"/>
        <path d="M43.443 125.94s-6.137-6.214-9.153-12.936c-3.017-6.721 4.293-12.356 6.842-2.733 2.617 9.881 2.311 15.668 2.311 15.668M49.058 137.103s-6.801 2.912-12.693 2.88c-5.891-.032-6.847-8.697.871-7.098 7.925 1.642 11.822 4.218 11.822 4.218" fill="#D7E8F2"/>
        <path d="M48.445 137.166s6.308-3.868 9.687-8.694c3.378-4.826-3.14-10.615-6.296-3.392-3.24 7.417-3.39 12.086-3.39 12.086M56.714 151.447s-6.719 3.097-12.609 3.227c-5.89.13-7.084-8.506.676-7.12 7.967 1.425 11.933 3.893 11.933 3.893" fill="#D7E8F2"/>
        <path d="M56.103 151.526s6.199-4.04 9.444-8.957c3.246-4.917-3.43-10.524-6.386-3.217-3.035 7.502-3.058 12.174-3.058 12.174M67.063 166.977s-6.598 3.348-12.479 3.699c-5.881.35-7.398-8.234.408-7.14 8.015 1.124 12.071 3.441 12.071 3.441" fill="#D7E8F2"/>
        <path d="M66.456 167.08s6.042-4.27 9.1-9.305c3.059-5.037-3.823-10.389-6.502-2.976-2.752 7.612-2.598 12.28-2.598 12.28M80.459 181.593s-5.799 4.596-11.492 6.112c-5.693 1.516-8.89-6.594-1.023-7.078 8.078-.496 12.515.966 12.515.966" fill="#D7E8F2"/>
        <path d="M79.884 181.814s5.07-5.388 7.063-10.932c1.993-5.544-5.816-9.417-6.965-1.62-1.18 8.008-.098 12.552-.098 12.552M96.278 192.515s-5.335 5.127-10.858 7.178c-5.522 2.052-9.478-5.716-1.692-6.947 7.994-1.264 12.55-.231 12.55-.231" fill="#D7E8F2"/>
        <path d="M95.726 192.79s4.534-5.847 5.99-11.556c1.456-5.709-6.688-8.82-7.088-.949-.41 8.083 1.098 12.504 1.098 12.504" fill="#D7E8F2"/>
        <path d="M262.267 201.28c0 3.021-46.592 5.47-104.066 5.47-57.473 0-104.065-2.449-104.065-5.47 0-3.022 46.592-5.472 104.065-5.472 57.474 0 104.066 2.45 104.066 5.471M28.406 175.082h-3.753v-5.199c0-.308.25-.558.558-.558h2.637c.309 0 .558.25.558.558v5.2z" fill="#16355A"/>
        <path d="M29.662 175.082h-3.753v-5.199c0-.308.25-.558.558-.558h2.637c.308 0 .558.25.558.558v5.2z" fill="#00ADF6"/>
        <path d="m17.733 192.514 8.075-.506c.175 1.311.53 2.31 1.068 2.998.874 1.111 2.123 1.667 3.747 1.667 1.21 0 2.145-.284 2.801-.852.656-.569.983-1.227.983-1.977 0-.712-.312-1.349-.936-1.91-.625-.563-2.074-1.093-4.347-1.593-3.722-.837-6.376-1.949-7.962-3.335-1.599-1.386-2.398-3.154-2.398-5.302 0-1.411.409-2.745 1.227-4 .818-1.255 2.048-2.241 3.69-2.96 1.643-.718 3.894-1.077 6.755-1.077 3.51 0 6.185.653 8.028 1.958 1.841 1.305 2.938 3.382 3.287 6.229l-8 .469c-.212-1.237-.658-2.137-1.339-2.698-.68-.562-1.62-.844-2.82-.844-.987 0-1.73.21-2.229.628-.5.419-.75.928-.75 1.527 0 .437.207.83.619 1.18.4.362 1.349.7 2.848 1.012 3.709.8 6.366 1.608 7.971 2.426 1.605.818 2.773 1.833 3.504 3.044.73 1.212 1.095 2.567 1.095 4.066a8.706 8.706 0 0 1-1.46 4.87c-.975 1.487-2.336 2.615-4.085 3.383-1.748.768-3.953 1.152-6.613 1.152-4.672 0-7.906-.9-9.705-2.698-1.798-1.798-2.816-4.084-3.054-6.857" fill="#16355A"/>
        <path d="M35.903 175.082h-3.754v-5.199c0-.308.25-.558.559-.558h2.637c.308 0 .558.25.558.558v5.2zM35.345 206.462h-2.637a.558.558 0 0 1-.559-.559v-5.199h3.754v5.2c0 .308-.25.558-.558.558M27.848 206.462h-2.637a.558.558 0 0 1-.558-.559v-5.199h3.753v5.2c0 .308-.25.558-.558.558" fill="#16355A"/>
        <path d="m20.168 192.514 8.261-.506c.178 1.311.543 2.31 1.092 2.998.895 1.111 2.173 1.667 3.834 1.667 1.239 0 2.194-.284 2.865-.852.671-.569 1.007-1.227 1.007-1.977 0-.712-.32-1.349-.959-1.91-.639-.563-2.121-1.093-4.446-1.593-3.809-.837-6.524-1.949-8.147-3.335-1.636-1.386-2.453-3.154-2.453-5.302 0-1.411.418-2.745 1.255-4s2.096-2.241 3.776-2.96c1.68-.718 3.984-1.077 6.91-1.077 3.59 0 6.328.653 8.214 1.958 1.884 1.305 3.005 3.382 3.363 6.229l-8.184.469c-.217-1.237-.674-2.137-1.37-2.698-.698-.562-1.658-.844-2.885-.844-1.01 0-1.77.21-2.281.628-.512.419-.767.928-.767 1.527 0 .437.21.83.632 1.18.41.362 1.38.7 2.914 1.012 3.795.8 6.513 1.608 8.156 2.426 1.642.818 2.837 1.833 3.584 3.044.747 1.212 1.121 2.567 1.121 4.066 0 1.76-.498 3.385-1.495 4.87-.996 1.487-2.389 2.615-4.178 3.383-1.79.768-4.045 1.152-6.766 1.152-4.78 0-8.09-.9-9.93-2.698-1.839-1.798-2.88-4.084-3.123-6.857" fill="#00ADF6"/>
        <path d="m37.688 175.85-3.753-.768v-5.199c0-.308.25-.558.558-.558h2.638c.308 0 .557.25.557.558v5.966zM37.13 206.462h-2.637a.558.558 0 0 1-.558-.559v-5.199l3.754-.767v5.966c0 .309-.25.559-.558.559M29.634 206.462h-2.637a.558.558 0 0 1-.558-.559v-5.199h3.753v5.2c0 .308-.25.558-.558.558" fill="#00ADF6"/>
        <path fill="#C4EEFE" d="m128.52 49.225 9.93-16.96v21.812z"/>
        <path fill="#00ADF6" d="m148.38 49.225-9.93-16.96v21.812z"/>
        <path fill="#C4EEFE" d="m128.52 50.806 9.93 16.96V56.04z"/>
        <path fill="#00ADF6" d="m148.38 50.806-9.93 16.96V56.04zM128.52 49.225l9.93 4.852v-9.704z"/>
        <path fill="#16355A" d="m148.38 49.225-9.93 4.852v-9.704z"/>
        <path fill="#58CFF9" d="m150.183 246.808-11.297-4.776 1.804-6.548 7.69 3.25z"/>
        <path fill="#FFF" d="m168.862 232.202-12.056-4.206 1.804-6.548 7.69 3.251z"/>
        <path fill="#00ADF6" d="m140.69 235.484 17.92-14.036 7.69 3.251-17.92 14.036z"/>
        <path fill="#58CFF9" d="m142.226 234.944 9.437.77 7.95-6.225-9.438-.77zM152.264 227.082l9.438.77 2.352-1.842-9.438-.77z"/>
        <path fill="#00ADF6" d="m150.183 246.808 18.68-14.606-2.563-7.503-17.92 14.036z"/>
        <path fill="#008BBC" d="m158.764 230.602-8.58 15.776 18.528-14.615-2.412-7.064z"/>
        <path fill="#16355A" d="m168.712 231.763.15.439-18.679 14.606v-.43z"/>
        <path fill="#C4EEFE" d="m147.99 238.57 17.96-14.018.35.147.117.343-17.958 14.05-.08-.357z"/>
        <path fill="#58CFF9" d="m161.998 251.965-11.297-4.776 1.804-6.548 7.69 3.251z"/>
        <path fill="#FFF" d="m180.677 237.36-12.056-4.206 1.804-6.548 7.69 3.25z"/>
        <path fill="#00ADF6" d="m152.505 240.641 17.92-14.035 7.69 3.25-17.92 14.036z"/>
        <path fill="#58CFF9" d="m154.041 240.101 9.437.77 7.95-6.225-9.438-.77zM164.08 232.24l9.437.77 2.352-1.842-9.438-.771z"/>
        <path fill="#00ADF6" d="m161.998 251.965 18.679-14.606-2.562-7.502-17.92 14.035z"/>
        <path fill="#008BBC" d="m170.578 235.76-8.58 15.775 18.53-14.614-2.413-7.064z"/>
        <path fill="#16355A" d="m180.527 236.921.15.438-18.679 14.606v-.43z"/>
        <path fill="#C4EEFE" d="m159.805 243.728 17.96-14.019.35.148.117.342-17.957 14.05-.08-.357z"/>
        <path fill="#58CFF9" d="m157.913 241.746-11.297-4.776 1.804-6.548 7.69 3.252z"/>
        <path fill="#FFF" d="m176.592 227.14-12.056-4.205 1.804-6.548 7.69 3.25z"/>
        <path fill="#00ADF6" d="m148.42 230.422 17.92-14.035 7.69 3.251-17.92 14.035z"/>
        <path fill="#58CFF9" d="m149.956 229.883 9.437.77 7.949-6.226-9.437-.77zM159.994 222.02l9.437.77 2.352-1.842-9.437-.77z"/>
        <path fill="#00ADF6" d="m157.913 241.746 18.679-14.606-2.563-7.502-17.92 14.036z"/>
        <path fill="#008BBC" d="m166.493 225.54-8.58 15.777 18.529-14.615-2.412-7.064z"/>
        <path fill="#16355A" d="m176.442 226.702.15.438-18.679 14.606v-.43z"/>
        <path fill="#C4EEFE" d="m155.72 233.509 17.96-14.019.35.148.116.342-17.957 14.05-.08-.356z"/>
        <path d="M228.017 200.431H91.546V97.001c0-3.084 2.5-5.584 5.584-5.584h130.887v109.014zM228.017 74.22h-36.38l-9.117 17.197h45.497z" fill="#16355A"/>
        <path d="M221.576 197.97H91.45l-9.707-94.407c-.32-3.116 2.46-6.583 5.278-6.583h121.582c1.57 0 2.704 1.125 2.882 2.86l10.091 98.13z" fill="#A6D4E2"/>
        <path d="M221.576 197.97H91.45l-21.735-86.635c-.717-2.86 1.621-6.042 4.44-6.042h121.582c1.57 0 2.847 1.033 3.246 2.625l22.593 90.051z" fill="#C4EEFE"/>
        <path d="M228.017 200.431H91.546l-35.307-82.315c-1.166-2.717.827-5.74 3.784-5.74h125.353a7.39 7.39 0 0 1 6.792 4.476l35.85 83.58z" fill="#00ADF6"/>
        <path fill="#16355A" d="M219.214 196.51H194.32l-3.84-9.432h24.894z"/>
        <path d="M115.458 158.486h-6.038c0-15.878 12.918-28.796 28.797-28.796 10.203 0 19.74 5.48 24.888 14.303l-5.215 3.042c-4.07-6.975-11.608-11.308-19.673-11.308-12.55 0-22.759 10.21-22.759 22.759" fill="#EFF9FE"/>
        <path fill="#EFF9FE" d="m151.16 147.118 14.931-9.238-1.414 14.738zM138.382 186.73c-10.205 0-19.741-5.48-24.889-14.303l5.216-3.043c4.07 6.975 11.607 11.309 19.673 11.309 12.548 0 22.758-10.21 22.758-22.76h6.038c0 15.88-12.918 28.797-28.796 28.797"/>
        <path fill="#EFF9FE" d="m125.438 169.302-14.93 9.238 1.414-14.739z"/>
        <path d="M211.133 224.475a.404.404 0 0 1-.403-.403v-1.591a.404.404 0 1 1 .806 0v1.591c0 .223-.18.403-.403.403M211.133 228.402a.404.404 0 0 1-.403-.404v-1.591a.404.404 0 1 1 .806 0v1.591c0 .223-.18.404-.403.404M211.897 225.24c0-.223.18-.404.403-.404h1.592a.404.404 0 1 1 0 .807H212.3a.404.404 0 0 1-.403-.404M207.97 225.24c0-.223.181-.404.404-.404h1.592a.404.404 0 1 1 0 .807h-1.592a.403.403 0 0 1-.403-.404M85.914 72.44h-1.055a.404.404 0 0 1-.404-.404v-4.728c0-.223.18-.403.404-.403h1.055c.222 0 .403.18.403.403v4.728c0 .223-.18.404-.403.404M85.914 81.5h-1.055a.404.404 0 0 1-.404-.404v-4.728c0-.223.18-.403.404-.403h1.055c.222 0 .403.18.403.403v4.728c0 .223-.18.403-.403.403M87.149 74.73v-1.056c0-.223.18-.403.403-.403h4.728c.223 0 .404.18.404.403v1.056c0 .222-.181.403-.404.403h-4.728a.404.404 0 0 1-.403-.403M78.089 74.73v-1.056c0-.223.18-.403.403-.403h4.728c.223 0 .404.18.404.403v1.056c0 .222-.181.403-.404.403h-4.728a.404.404 0 0 1-.403-.403M110.247 221.464h-.595a.404.404 0 0 1-.403-.404v-3.36c0-.224.18-.404.403-.404h.595c.223 0 .404.18.404.403v3.361c0 .223-.18.404-.404.404M110.247 228.286h-.595a.403.403 0 0 1-.403-.404v-3.36c0-.223.18-.404.403-.404h.595c.223 0 .404.18.404.403v3.361c0 .223-.18.404-.404.404M111.277 223.088v-.595c0-.223.18-.403.403-.403h3.361c.223 0 .404.18.404.403v.595c0 .223-.181.404-.404.404h-3.36a.404.404 0 0 1-.404-.404M104.455 223.088v-.595c0-.223.18-.403.403-.403h3.361c.223 0 .404.18.404.403v.595c0 .223-.181.404-.404.404h-3.361a.404.404 0 0 1-.403-.404M196.503 58.522a.404.404 0 0 1-.404-.403v-1.591a.404.404 0 1 1 .807 0v1.59c0 .224-.18.404-.403.404M196.503 62.449a.404.404 0 0 1-.404-.404v-1.592a.404.404 0 0 1 .807 0v1.592c0 .223-.18.404-.403.404M197.267 59.286c0-.223.18-.403.403-.403h1.591a.404.404 0 1 1 0 .807h-1.59a.404.404 0 0 1-.404-.404M193.34 59.286c0-.223.181-.403.404-.403h1.592a.404.404 0 0 1 0 .807h-1.592a.404.404 0 0 1-.404-.404M24.262 191.304a.403.403 0 0 1-.404-.403v-1.592a.403.403 0 1 1 .807 0v1.592c0 .222-.18.403-.403.403M24.262 195.23a.403.403 0 0 1-.404-.403v-1.592a.404.404 0 1 1 .807 0v1.592c0 .222-.18.403-.403.403M25.026 192.068c0-.223.18-.404.403-.404h1.592a.404.404 0 1 1 0 .807h-1.592a.403.403 0 0 1-.403-.403M21.1 192.068c0-.223.18-.404.403-.404h1.591a.404.404 0 1 1 0 .807h-1.591a.403.403 0 0 1-.404-.403" fill="#00ADF6"/>
        <path d="M73.408 219.38a2.018 2.018 0 1 1-4.037 0 2.018 2.018 0 0 1 4.037 0M45.473 71.248a2.019 2.019 0 1 1-4.038 0 2.019 2.019 0 0 1 4.038 0" fill="#FFF"/>
        <path d="M210.655 40.129h18.393a3.45 3.45 0 0 0 3.45-3.45v-6.162a3.45 3.45 0 0 0-3.45-3.45h-14.943a3.45 3.45 0 0 0-3.45 3.45v9.612z" fill="#00ADF6"/>
        <path d="M226.747 33.598a1.297 1.297 0 1 0 2.595 0 1.297 1.297 0 0 0-2.595 0M220.678 33.598a1.297 1.297 0 1 0 2.595 0 1.297 1.297 0 0 0-2.595 0M214.61 33.598a1.297 1.297 0 1 0 2.596 0 1.297 1.297 0 0 0-2.595 0" fill="#FFF"/>
        <path d="M210.655 40.129h5.87l-4.544 4.041a.797.797 0 0 1-1.326-.595v-3.446z" fill="#00ADF6"/>
        <path d="M67.058 248.068H49.405a3.034 3.034 0 0 1-3.034-3.034v-6.303a3.034 3.034 0 0 1 3.034-3.034h14.619a3.034 3.034 0 0 1 3.034 3.034v9.337z" fill="#16355A"/>
        <path d="M51.817 241.882a1.229 1.229 0 1 1-2.457 0 1.229 1.229 0 0 1 2.457 0M57.564 241.882a1.229 1.229 0 1 1-2.457 0 1.229 1.229 0 0 1 2.457 0M63.311 241.882a1.23 1.23 0 1 1-2.458 0 1.23 1.23 0 0 1 2.458 0" fill="#FFF"/>
        <path d="M67.058 248.068h-5.56l4.303 3.828a.755.755 0 0 0 1.257-.564v-3.264z" fill="#16355A"/>
    </g>
</svg>
