<svg width="343" height="214" viewBox="0 0 343 214" xmlns="http://www.w3.org/2000/svg">
    <g fill="none" fill-rule="evenodd">
        <rect fill="#E8F8FF" width="343" height="214" rx="4"/>
        <path d="M237.729 181.88h69.195a3.66 3.66 0 0 0 3.659-3.662v-86.47a3.66 3.66 0 0 0-3.66-3.659H237.73a3.66 3.66 0 0 0-3.66 3.66v86.469a3.66 3.66 0 0 0 3.66 3.661" fill="#CCEEFC"/>
        <path d="M243.988 158.491c4.874-10.234 21.927-12.184 21.927-12.184v-7.795s-13.156-4.874-13.156-19.492c0-14.619 8.285-23.388 18.516-23.388.463 0 .85.008 1.24.018.287-.005.54-.018.861-.018.236 0 .453.064.687.074.642.04 1.13.097 1.502.163 9.187 1.178 16.327 9.606 16.327 23.15 0 14.62-13.155 19.493-13.155 19.493v7.795s17.053 1.95 21.926 12.184c4.874 10.232 4.387 23.387 4.387 23.387h-65.447s-.486-13.155 4.385-23.387" fill="#B2E4F9"/>
        <path d="M33.3 96.647h36.628a4.28 4.28 0 1 0 0-8.56H33.3a4.28 4.28 0 1 0 0 8.56M95.486 96.647h109.536a4.28 4.28 0 1 0 0-8.56H95.486a4.28 4.28 0 1 0 0 8.56M64.551 36.422h203.233a4.281 4.281 0 0 0 0-8.562H64.551a4.281 4.281 0 0 0 0 8.562M88.895 61.798H243.44a4.28 4.28 0 1 0 0-8.56H88.895a4.28 4.28 0 1 0 0 8.56M33.3 123.884h36.628a4.281 4.281 0 0 0 0-8.562H33.3a4.281 4.281 0 0 0 0 8.562M95.486 123.884h109.536a4.281 4.281 0 0 0 0-8.562H95.486a4.281 4.281 0 0 0 0 8.562M33.3 151.121h36.628a4.281 4.281 0 0 0 0-8.562H33.3a4.281 4.281 0 0 0 0 8.562M95.486 151.121h109.536a4.281 4.281 0 0 0 0-8.562H95.486a4.281 4.281 0 0 0 0 8.562M33.3 178.356h36.628a4.28 4.28 0 1 0 0-8.56H33.3a4.28 4.28 0 1 0 0 8.56M95.486 178.356h109.536a4.28 4.28 0 1 0 0-8.56H95.486a4.28 4.28 0 1 0 0 8.56" fill="#CCEEFC"/>
    </g>
</svg>
