<svg width="375" height="607" viewBox="0 0 375 607" xmlns="http://www.w3.org/2000/svg">
    <g fill="none" fill-rule="evenodd">
        <path d="M375 .002V607H0V.002h375zM245 328H130c-7.732 0-14 6.268-14 14v69c0 7.732 6.268 14 14 14h115c7.732 0 14-6.268 14-14v-69c0-7.732-6.268-14-14-14zM188 64C132.77 64 88 118.72 88 186.222s44.771 122.223 100 122.223 100-54.721 100-122.223C288 118.721 243.229 64 188 64z" fill-opacity=".9" fill="#1D3557"/>
        <path d="M120.104 347H118v-8.208c0-4.848 4.031-8.792 8.986-8.792h7.935v2.055h-7.935c-3.795 0-6.882 3.022-6.882 6.737V347zM239.595 332.291v-2.054h8.403c4.964 0 9.002 3.937 9.002 8.777v7.75h-2.104v-7.75c0-3.707-3.094-6.723-6.898-6.723h-8.403zM254.896 406H257v8.208c0 4.848-4.031 8.792-8.986 8.792h-7.935v-2.055h7.935c3.795 0 6.882-3.022 6.882-6.737V406zM135.405 420.709v2.054h-8.403c-4.964 0-9.002-3.937-9.002-8.777v-7.75h2.104v7.75c0 3.707 3.094 6.723 6.898 6.723h8.403z" stroke="#FFF" stroke-width="4" fill="#FFF"/>
        <path d="M222.945 292.583c-10.79 5.47-22.587 8.494-34.945 8.494s-24.155-3.024-34.945-8.494H138.71c14.547 10.093 31.367 15.862 49.29 15.862s34.743-5.769 49.29-15.862h-14.345zM123.959 103.316C140.606 83.538 163.178 71.368 188 71.368c24.822 0 47.393 12.17 64.041 31.948h9.427C243.198 79.143 217.048 64 188 64c-29.048 0-55.199 15.143-73.469 39.316h9.428z" fill="#FFF"/>
    </g>
</svg>
