<svg width="30" height="31" viewBox="0 0 30 31" xmlns="http://www.w3.org/2000/svg">
    <g fill="none" fill-rule="evenodd">
        <path d="M0 30.534h30v-30H0z"/>
        <g fill="#0076B5">
            <path d="M10.28 8.216a.427.427 0 0 0-.247.079L7.751 9.918a2.615 2.615 0 0 0-.845 3.27l.366.76c.376.786.823 1.544 1.328 2.254l2.998 4.216a15.36 15.36 0 0 0 1.692 1.995l.6.596a2.615 2.615 0 0 0 3.364.276l2.283-1.624a.426.426 0 0 0 .101-.597l-1.521-2.14a.426.426 0 0 0-.598-.101l-1.844 1.311a.753.753 0 0 1-1.051-.177l-4.594-6.461a.754.754 0 0 1 .177-1.051l1.844-1.312a.428.428 0 0 0 .101-.597l-1.521-2.14a.43.43 0 0 0-.35-.18m5.455 17.063a4.12 4.12 0 0 1-2.908-1.201l-.6-.595a16.9 16.9 0 0 1-1.859-2.191l-2.997-4.216a16.876 16.876 0 0 1-1.46-2.476l-.365-.761a4.12 4.12 0 0 1 1.33-5.15L9.16 7.067a1.938 1.938 0 0 1 2.699.456l1.522 2.14v.001c.3.421.417.934.33 1.444a1.92 1.92 0 0 1-.786 1.255l-1.23.874 3.72 5.233 1.231-.874c.42-.3.934-.417 1.444-.331.51.086.955.365 1.255.786l1.521 2.14c.3.422.418.935.332 1.445-.087.51-.366.955-.788 1.255l-2.282 1.623a4.118 4.118 0 0 1-2.392.766M22.696 16.2a.753.753 0 0 1-.463-1.348c1.5-1.168 1.507-3.681.012-5.602-.742-.952-1.732-1.611-2.79-1.855-1-.23-1.94-.056-2.643.491a.754.754 0 0 1-.926-1.189c1.069-.832 2.46-1.104 3.907-.77 1.395.32 2.688 1.172 3.641 2.398 2.005 2.576 1.882 6.038-.275 7.717a.752.752 0 0 1-.463.159"/>
            <path d="M20.268 15.182a.753.753 0 0 1-.463-1.348c.282-.22.444-.578.453-1.006.01-.488-.17-.996-.51-1.431-.651-.838-1.727-1.136-2.347-.653a.753.753 0 0 1-.926-1.19c1.287-1.001 3.29-.59 4.463.917.551.708.845 1.556.827 2.39-.02.89-.387 1.658-1.034 2.162a.75.75 0 0 1-.463.159"/>
        </g>
    </g>
</svg>
