<svg width="46.324" height="46.324" viewBox="0 0 46.324 46.324" xmlns="http://www.w3.org/2000/svg" xmlns:xlink="http://www.w3.org/1999/xlink">
    <defs>
        <path d="M19.853 27.893c-4.433 0-8.04-3.606-8.04-8.04 0-4.435 3.607-8.041 8.04-8.041 4.434 0 8.04 3.606 8.04 8.041 0 4.434-3.606 8.04-8.04 8.04zm0-18.048c-5.518 0-10.008 4.489-10.008 10.008 0 5.518 4.49 10.007 10.008 10.007 5.518 0 10.009-4.489 10.009-10.007 0-5.52-4.49-10.008-10.009-10.008zm17.885 20.673a2.302 2.302 0 0 1-2.297 2.297H4.266a2.302 2.302 0 0 1-2.297-2.297V12.47a2.302 2.302 0 0 1 2.297-2.299h3.579a2.63 2.63 0 0 0 2.572-2.11l1.113-5.565a.661.661 0 0 1 .643-.529h15.36c.31 0 .582.223.644.529l1.112 5.565v.002a2.63 2.63 0 0 0 2.573 2.108h3.579a2.302 2.302 0 0 1 2.297 2.299v18.048zM35.44 8.204h-3.579a.661.661 0 0 1-.643-.528l-1.113-5.568A2.63 2.63 0 0 0 27.534 0H12.173A2.63 2.63 0 0 0 9.6 2.11L8.488 7.676a.661.661 0 0 1-.643.528H4.266A4.27 4.27 0 0 0 0 12.47v18.048a4.27 4.27 0 0 0 4.266 4.265h31.175a4.27 4.27 0 0 0 4.266-4.265V12.47a4.27 4.27 0 0 0-4.266-4.266z" id="5351emlzba"/>
    </defs>
    <g transform="translate(3.309 4.963)" fill="none" fill-rule="evenodd">
        <mask id="84h4o02nnb" fill="#fff">
            <use xlink:href="#5351emlzba"/>
        </mask>
        <use fill="#163567" xlink:href="#5351emlzba"/>
        <g mask="url(#84h4o02nnb)">
            <rect fill="#FFF" width="66.178" height="66.178" rx="10" transform="translate(-13.236 -14.89)"/>
        </g>
    </g>
</svg>
