<svg width="36" height="36" viewBox="0 0 36 36" xmlns="http://www.w3.org/2000/svg">
    <g fill="none" fill-rule="evenodd">
        <path d="M0 36h36V0H0z"/>
        <path d="M6.508 7.187a.45.45 0 0 0-.45.45v20.68c0 .28.197.404.281.445a.48.48 0 0 0 .523-.06l6.19-4.977h16.44a.45.45 0 0 0 .45-.449V7.636a.45.45 0 0 0-.45-.449H6.508zm.048 22.896c-.26 0-.52-.058-.766-.176a1.75 1.75 0 0 1-1.001-1.59V7.636c0-.949.771-1.72 1.72-1.72h22.983c.948 0 1.72.771 1.72 1.72v15.64c0 .947-.772 1.718-1.72 1.718H13.5l-5.842 4.696c-.322.259-.71.392-1.102.392z" fill="#00ADF6"/>
        <path d="M29.492 6.552H6.508c-.599 0-1.084.486-1.084 1.085v20.68c0 .947 1.097 1.473 1.836.88l6.016-4.837h16.216c.599 0 1.084-.485 1.084-1.084V7.636c0-.598-.485-1.084-1.084-1.084" fill="#DADADA"/>
        <path d="M6.508 7.187a.45.45 0 0 0-.45.45v20.68c0 .28.197.404.281.445a.48.48 0 0 0 .523-.06l6.19-4.977h16.44a.45.45 0 0 0 .45-.449V7.636a.45.45 0 0 0-.45-.449H6.508zm.048 22.896c-.26 0-.52-.058-.766-.176a1.75 1.75 0 0 1-1.001-1.59V7.636c0-.949.771-1.72 1.72-1.72h22.983c.948 0 1.72.771 1.72 1.72v15.64c0 .947-.772 1.718-1.72 1.718H13.5l-5.842 4.696c-.322.259-.71.392-1.102.392z" fill="#DADADA"/>
        <path d="M24.322 13.33H11.678a.953.953 0 0 1 0-1.906h12.644a.953.953 0 0 1 0 1.905M20.512 18.952h-8.834a.953.953 0 0 1 0-1.905h8.834a.953.953 0 0 1 0 1.905" fill="#FFF"/>
    </g>
</svg>
