<svg width="30" height="31" viewBox="0 0 30 31" xmlns="http://www.w3.org/2000/svg">
    <g fill="#0076B5" fill-rule="evenodd">
        <path d="M24.943 25.594H7.378a2.023 2.023 0 0 1-2.02-2.02V5.59a.771.771 0 0 1 1.542 0v17.982c0 .264.214.478.478.478h17.565a.771.771 0 0 1 0 1.543M24.943 14.847a.771.771 0 0 1-.771-.772v-2.801H21.35a.771.771 0 1 1 0-1.543h3.593c.426 0 .771.346.771.772v3.572a.771.771 0 0 1-.771.772"/>
        <path d="M8.468 21.3a.77.77 0 0 1-.528-1.334l7.22-6.779a.774.774 0 0 1 1.145.1l2.08 2.781 6.008-6.106a.772.772 0 0 1 1.1 1.082l-6.638 6.746a.77.77 0 0 1-1.168-.08l-2.1-2.808-6.591 6.19a.768.768 0 0 1-.528.208"/>
    </g>
</svg>
