<svg width="30" height="31" viewBox="0 0 30 31" xmlns="http://www.w3.org/2000/svg">
    <g fill="#0076B5" fill-rule="evenodd">
        <path d="M15 5.43c-5.571 0-10.103 4.532-10.103 10.104 0 5.57 4.532 10.103 10.103 10.103s10.104-4.532 10.104-10.103C25.104 9.962 20.57 5.43 15 5.43m0 21.845c-6.475 0-11.742-5.267-11.742-11.741C3.258 9.059 8.525 3.792 15 3.792c6.474 0 11.742 5.267 11.742 11.742 0 6.474-5.268 11.741-11.742 11.741"/>
        <path d="M22.123 23.815 6.719 8.41l1.158-1.159 15.404 15.404zM5.791 18.327v-1.35c.417.243.767.364 1.05.364a.542.542 0 0 0 .391-.136.478.478 0 0 0 .144-.363.53.53 0 0 0-.115-.325 2.176 2.176 0 0 0-.398-.37c-.454-.347-.783-.67-.987-.97a1.738 1.738 0 0 1-.306-1c0-.5.158-.909.473-1.224.316-.315.724-.473 1.224-.473.37 0 .738.08 1.103.239v1.297c-.39-.214-.708-.32-.95-.32-.163 0-.291.04-.385.119a.406.406 0 0 0-.141.327c0 .243.218.517.655.82.26.18.525.433.792.758.268.326.402.703.402 1.13 0 .501-.175.916-.525 1.245-.35.328-.795.492-1.333.492-.367 0-.732-.087-1.094-.26"/>
        <path d="M9.151 12.64h1.263l.747 3.495h.017l.677-3.495h1.146l.686 3.456h.017l.712-3.456h1.298l-1.389 5.795h-1.19l-.55-2.591c-.061-.284-.112-.557-.152-.82h-.018c-.072.448-.124.747-.156.898l-.547 2.513H10.54L9.151 12.64zM18.397 16.426a25.454 25.454 0 0 1-.443-2.462h-.018c-.104.802-.25 1.622-.438 2.462h.899zm1.84 2.01H18.87l-.222-.969H17.26l-.23.968h-1.34l1.536-5.795H18.7l1.537 5.795zM22.216 13.752v1.367c.295-.006.513-.062.654-.17.14-.106.21-.276.21-.507 0-.249-.068-.425-.204-.528-.136-.102-.356-.157-.66-.162zm-1.315-1.111h1.628c.573 0 1.033.163 1.38.49.347.327.521.758.521 1.293 0 .565-.176 1.007-.527 1.327-.352.32-.839.48-1.46.48h-.227v2.204h-1.315v-5.794z"/>
    </g>
</svg>
