<svg width="28" height="28" xmlns="http://www.w3.org/2000/svg" xmlns:xlink="http://www.w3.org/1999/xlink">
    <defs>
        <path d="M22.81 10.845H12.1V8.068h10.315c.218 0 .397.177.397.396v2.38zm-1.983 11.504c0 .22-.178.397-.396.397h-8.332V12.035h8.728v10.314zM13.702 2.357a1.59 1.59 0 0 1 1.142-1.114 1.6 1.6 0 0 1 1.545.425c.369.37.534.879.45 1.394-.084.516-.4.945-.867 1.18l-3.275 1.637 1.005-3.522zm-2.792 8.488H1.19v-2.38c0-.22.178-.397.397-.397h9.323v2.777zm0 11.901H3.57a.397.397 0 0 1-.397-.397V12.035h7.737v10.711zM7.286 4.242a1.59 1.59 0 0 1-.868-1.18 1.593 1.593 0 0 1 .457-1.4 1.585 1.585 0 0 1 1.537-.419c.558.144.984.56 1.142 1.113v.001l1.005 3.522-3.273-1.637zm15.128 2.636h-9.053l3.143-1.572a2.768 2.768 0 0 0 1.51-2.053 2.77 2.77 0 0 0-.79-2.432 2.776 2.776 0 0 0-2.679-.73 2.77 2.77 0 0 0-1.987 1.939l-.93 3.254-.93-3.254A2.77 2.77 0 0 0 8.711.09a2.778 2.778 0 0 0-2.685.737 2.77 2.77 0 0 0-.783 2.426 2.769 2.769 0 0 0 1.51 2.053l3.143 1.572h-8.31C.713 6.878 0 7.59 0 8.464v3.57h1.984V22.35c0 .875.712 1.587 1.586 1.587h16.86c.874 0 1.586-.712 1.586-1.587V12.035H24v-3.57c0-.875-.712-1.587-1.586-1.587z" id="a"/>
    </defs>
    <g transform="translate(2 2)" fill="none" fill-rule="evenodd">
        <mask id="b" fill="#fff">
            <use xlink:href="#a"/>
        </mask>
        <use fill="#E0995E" xlink:href="#a"/>
        <g mask="url(#b)">
            <rect fill="#0076B5" width="40" height="40" rx="10" transform="translate(-8 -8)"/>
        </g>
    </g>
</svg>
