<svg width="24" height="24" viewBox="0 0 24 24" xmlns="http://www.w3.org/2000/svg" xmlns:xlink="http://www.w3.org/1999/xlink">
    <defs>
        <path d="M10.71 4.25a.51.51 0 0 0-.51.51v5.95c0 .283.23.51.51.51h5.101a.51.51 0 1 0 0-1.02h-4.59V4.76a.51.51 0 0 0-.51-.51M10.286 0c-2.9 0-5.633 1.23-7.566 3.338V.51a.51.51 0 0 0-1.02 0v4.25c0 .18.099.33.239.421.079.052.17.09.271.09h4.25a.51.51 0 1 0 0-1.02H3.27a9.25 9.25 0 0 1 7.016-3.23c5.11 0 9.265 4.156 9.265 9.265 0 5.109-4.156 9.265-9.265 9.265-5.11 0-9.266-4.156-9.266-9.265a.51.51 0 0 0-1.02 0C0 15.957 4.614 20.57 10.286 20.57c5.671 0 10.285-4.614 10.285-10.285C20.571 4.614 15.957 0 10.286 0" id="nykozqlm9a"/>
    </defs>
    <g transform="translate(1.714 1.714)" fill="none" fill-rule="evenodd">
        <mask id="1yshw1izdb" fill="#fff">
            <use xlink:href="#nykozqlm9a"/>
        </mask>
        <use fill="#163567" xlink:href="#nykozqlm9a"/>
        <g mask="url(#1yshw1izdb)">
            <rect fill="#0076B5" width="34.286" height="34.286" rx="10" transform="translate(-6.857 -6.857)"/>
        </g>
    </g>
</svg>
