<svg width="36" height="36" viewBox="0 0 36 36" xmlns="http://www.w3.org/2000/svg">
    <g fill="none" fill-rule="evenodd">
        <path d="M0 36h36V0H0z"/>
        <path d="M22.897 29.257h5.117a.426.426 0 0 0 .426-.426V16.335a2.61 2.61 0 0 0-.873-1.947h.001l-9.162-8.169a.61.61 0 0 0-.813 0l-9.161 8.169a2.612 2.612 0 0 0-.872 1.947V28.83c0 .235.19.426.426.426h5.117v-4.243c0-1.648 1.34-2.99 2.99-2.99h3.815a2.993 2.993 0 0 1 2.99 2.99v4.243zm5.117 1.27h-6.387v-5.513c0-.948-.771-1.72-1.72-1.72h-3.815c-.947 0-1.719.772-1.719 1.72v5.513H7.986c-.935 0-1.696-.761-1.696-1.696V16.335c0-1.105.472-2.16 1.297-2.895l9.162-8.169a1.88 1.88 0 0 1 2.503 0l9.161 8.169a3.883 3.883 0 0 1 1.297 2.895V28.83c0 .935-.761 1.696-1.696 1.696z" fill="#065BA8"/>
        <path d="M27.99 13.914 18.83 5.745a1.245 1.245 0 0 0-1.658 0L8.01 13.914a3.243 3.243 0 0 0-1.085 2.42v12.497c0 .586.475 1.06 1.06 1.06h5.753v-4.877c0-1.3 1.054-2.354 2.354-2.354h3.816c1.3 0 2.354 1.054 2.354 2.354v4.878h5.752a1.06 1.06 0 0 0 1.061-1.061V16.335c0-.925-.394-1.806-1.085-2.421" fill="#065BA8"/>
        <path d="M21.387 15.06a3.387 3.387 0 1 1-6.774 0 3.387 3.387 0 0 1 6.774 0" fill="#FFF"/>
    </g>
</svg>
