<svg width="30" height="31" viewBox="0 0 30 31" xmlns="http://www.w3.org/2000/svg">
    <g fill="#0076B5" fill-rule="evenodd">
        <path d="M5.61 28.056a1.843 1.843 0 1 1-3.686 0 1.843 1.843 0 0 1 3.686 0M16.843 28.056a1.843 1.843 0 1 1-3.686 0 1.843 1.843 0 0 1 3.686 0M28.076 28.056a1.843 1.843 0 1 1-3.686 0 1.843 1.843 0 0 1 3.686 0M15 7.614a2.858 2.858 0 0 0-2.854 2.854A2.858 2.858 0 0 0 15 13.322a2.857 2.857 0 0 0 2.854-2.854A2.857 2.857 0 0 0 15 7.614m0 7.347a4.498 4.498 0 0 1-4.493-4.493A4.498 4.498 0 0 1 15 5.976a4.497 4.497 0 0 1 4.492 4.492A4.497 4.497 0 0 1 15 14.961"/>
        <path d="M15 3.37c-4.727 0-8.571 3.846-8.571 8.572 0 4.726 3.844 8.57 8.571 8.57 4.726 0 8.571-3.844 8.571-8.57 0-4.726-3.845-8.571-8.571-8.571m0 18.78c-5.63 0-10.21-4.58-10.21-10.21C4.79 6.313 9.37 1.734 15 1.734c5.63 0 10.21 4.58 10.21 10.209S20.63 22.15 15 22.15"/>
        <path d="M9.629 18.62A8.554 8.554 0 0 0 15 20.513c1.962 0 3.851-.67 5.37-1.893a4.757 4.757 0 0 0-4.625-3.579h-1.49a4.757 4.757 0 0 0-4.626 3.579M15 22.15a10.19 10.19 0 0 1-6.82-2.612l-.332-.298.071-.442a6.391 6.391 0 0 1 6.335-5.395h1.491c3.166 0 5.83 2.27 6.335 5.395l.071.442-.332.298A10.19 10.19 0 0 1 15 22.151"/>
        <path d="M15 20.642a.819.819 0 0 1-.487-1.478l1.285-.949-.962-3.792a.819.819 0 1 1 1.588-.402l1.232 4.858-2.17 1.603a.818.818 0 0 1-.486.16"/>
        <path d="M15 20.642a.818.818 0 0 1-.487-.16l-2.17-1.603 1.233-4.858a.82.82 0 0 1 1.588.402l-.962 3.792 1.285.949A.819.819 0 0 1 15 20.642"/>
        <path d="M15 28.875a.82.82 0 0 1-.82-.82v-6.558a.82.82 0 1 1 1.64 0v6.559a.82.82 0 0 1-.82.819M26.234 28.875a.817.817 0 0 1-.615-.277l-6.88-7.794a.819.819 0 1 1 1.228-1.085l6.88 7.794a.82.82 0 0 1-.613 1.362M3.766 28.875a.82.82 0 0 1-.613-1.361l6.88-7.795a.82.82 0 0 1 1.228 1.085l-6.88 7.794a.818.818 0 0 1-.615.277"/>
    </g>
</svg>
