<svg width="28" height="28" xmlns="http://www.w3.org/2000/svg" xmlns:xlink="http://www.w3.org/1999/xlink">
    <defs>
        <path d="M18 18.6a.4.4 0 0 1-.4.4h-16a.4.4 0 0 1-.401-.4v-2.13c0-.219.191-.351.353-.398 2.659-.76 3.151-4.445 3.645-10.423C5.432 2.822 7.036 1.2 9.6 1.2c2.563 0 4.168 1.622 4.402 4.449.494 5.978.986 9.663 3.645 10.423.163.047.353.179.353.398v2.13zm-.022-3.681c-1.907-.546-2.355-4.227-2.781-9.368C14.915 2.127 12.77 0 9.6 0 6.43 0 4.284 2.127 4.002 5.551c-.426 5.141-.874 8.822-2.78 9.368C.49 15.128 0 15.751 0 16.47v2.13c0 .882.718 1.6 1.6 1.6h16c.881 0 1.599-.718 1.599-1.6v-2.13c0-.719-.49-1.342-1.221-1.551zM11.6 21a.6.6 0 0 0-.6.6c0 .772-.629 1.4-1.4 1.4a1.402 1.402 0 0 1-1.401-1.4.599.599 0 1 0-1.199 0c0 1.434 1.166 2.6 2.6 2.6a2.602 2.602 0 0 0 2.599-2.6c0-.332-.268-.6-.599-.6z" id="a"/>
    </defs>
    <g transform="translate(4 2)" fill="none" fill-rule="evenodd">
        <mask id="b" fill="#fff">
            <use xlink:href="#a"/>
        </mask>
        <use fill="#003591" xlink:href="#a"/>
        <g mask="url(#b)">
            <rect fill="#0076B5" width="40" height="40" rx="10" transform="translate(-10 -8)"/>
        </g>
    </g>
</svg>
