<svg width="30" height="31" viewBox="0 0 30 31" xmlns="http://www.w3.org/2000/svg">
    <g fill="none" fill-rule="evenodd">
        <path d="M0 30.534h30v-30H0z"/>
        <g fill="#0076B5">
            <path d="M13.892 14.118a9.742 9.742 0 0 1 7.995 4.18 4.363 4.363 0 0 0-1.856.079 8.22 8.22 0 0 0-6.14-2.752h-.399c-4.542 0-8.238 3.696-8.238 8.238 0 .07.057.126.126.126h11.636c.191.563.494 1.075.883 1.508H5.38c-.9 0-1.633-.733-1.633-1.634 0-5.373 4.372-9.745 9.745-9.745h.4z"/>
            <path d="M13.692 4.875A4.569 4.569 0 0 0 9.13 9.438a4.568 4.568 0 0 0 4.563 4.563 4.568 4.568 0 0 0 4.563-4.563 4.568 4.568 0 0 0-4.563-4.563m0 10.633a6.077 6.077 0 0 1-6.07-6.07 6.077 6.077 0 0 1 6.07-6.07 6.077 6.077 0 0 1 6.07 6.07 6.077 6.077 0 0 1-6.07 6.07M21.143 18.448a4.145 4.145 0 0 0-4.141 4.141 4.146 4.146 0 0 0 4.14 4.142 4.146 4.146 0 0 0 4.142-4.142 4.146 4.146 0 0 0-4.141-4.14m0 8.712a4.577 4.577 0 0 1-4.572-4.572c0-2.52 2.051-4.571 4.572-4.571a4.577 4.577 0 0 1 4.572 4.571c0 2.521-2.051 4.572-4.572 4.572"/>
            <path d="M21.143 18.987a3.607 3.607 0 0 0-3.603 3.602 3.607 3.607 0 0 0 3.603 3.603 3.607 3.607 0 0 0 3.603-3.603 3.607 3.607 0 0 0-3.603-3.602m0 8.712a5.116 5.116 0 0 1-5.11-5.11 5.116 5.116 0 0 1 5.11-5.11 5.116 5.116 0 0 1 5.11 5.11 5.116 5.116 0 0 1-5.11 5.11"/>
            <path d="M21.143 25.126a.754.754 0 0 1-.754-.754v-3.565a.754.754 0 1 1 1.507 0v3.565a.754.754 0 0 1-.753.754"/>
            <path d="M22.926 23.343H19.36a.754.754 0 1 1 0-1.507h3.566a.754.754 0 1 1 0 1.507"/>
        </g>
    </g>
</svg>
