<svg width="30" height="31" viewBox="0 0 30 31" xmlns="http://www.w3.org/2000/svg">
    <g fill="none" fill-rule="evenodd">
        <path d="M0 30.534h30v-30H0z"/>
        <g fill="#0076B5">
            <path d="M7.424 7.604a1.22 1.22 0 0 0-1.219 1.22v14.624l4.871-3.888h11.5a1.22 1.22 0 0 0 1.22-1.219V8.823a1.22 1.22 0 0 0-1.22-1.219H7.424zM6.222 25.168c-.252 0-.507-.056-.746-.17a1.705 1.705 0 0 1-.976-1.55V8.823A2.927 2.927 0 0 1 7.424 5.9h15.152A2.927 2.927 0 0 1 25.5 8.823v9.518a2.927 2.927 0 0 1-2.924 2.924h-10.9l-4.381 3.522c-.313.252-.69.381-1.073.381z"/>
            <path d="M19.85 12.072h-9.7a.853.853 0 0 1 0-1.705h9.7a.853.853 0 0 1 0 1.705M16.927 16.386H10.15a.853.853 0 0 1 0-1.705h6.777a.853.853 0 0 1 0 1.705"/>
        </g>
    </g>
</svg>
