<svg width="30" height="31" viewBox="0 0 30 31" xmlns="http://www.w3.org/2000/svg">
    <g fill="none" fill-rule="evenodd">
        <path d="M0 30.534h30v-30H0z"/>
        <g fill="#0076B5">
            <path d="M15 13.35a.754.754 0 0 1-.754-.753V5.738a.754.754 0 1 1 1.508 0v6.86a.754.754 0 0 1-.754.753"/>
            <path d="M15 26.082c-5.043 0-9.146-4.103-9.146-9.146 0-3.681 2.19-6.988 5.58-8.425A.753.753 0 1 1 12.02 9.9a7.63 7.63 0 0 0-4.66 7.037c0 4.212 3.427 7.639 7.639 7.639s7.64-3.427 7.64-7.64A7.63 7.63 0 0 0 17.977 9.9a.754.754 0 0 1 .588-1.388 9.134 9.134 0 0 1 5.58 8.425c0 5.043-4.103 9.146-9.146 9.146"/>
        </g>
    </g>
</svg>
