<svg width="36" height="36" viewBox="0 0 36 36" xmlns="http://www.w3.org/2000/svg">
    <g fill="none" fill-rule="evenodd">
        <path d="M0 36h36V0H0z"/>
        <path d="M7.991 7.157a1.836 1.836 0 0 0-1.834 1.834v17.892c0 1.011.823 1.834 1.834 1.834H28.01a1.835 1.835 0 0 0 1.834-1.834V8.991a1.835 1.835 0 0 0-1.834-1.834H7.991zM28.01 29.874H7.991A2.994 2.994 0 0 1 5 26.884V8.99C5 7.34 6.342 6 7.991 6H28.01C29.66 6 31 7.342 31 8.99v17.893a2.994 2.994 0 0 1-2.99 2.99z" fill="#00ADF6"/>
        <path d="M29.818 29.295H6.182a.603.603 0 0 1-.603-.603V7.182c0-.333.27-.603.603-.603h23.636c.333 0 .603.27.603.603v21.51c0 .333-.27.603-.603.603" fill="#DADADA"/>
        <path d="M7.991 7.157a1.836 1.836 0 0 0-1.834 1.834v17.892c0 1.011.823 1.834 1.834 1.834H28.01a1.835 1.835 0 0 0 1.834-1.834V8.991a1.835 1.835 0 0 0-1.834-1.834H7.991zM28.01 29.874H7.991A2.994 2.994 0 0 1 5 26.884V8.99C5 7.34 6.342 6 7.991 6H28.01C29.66 6 31 7.342 31 8.99v17.893a2.994 2.994 0 0 1-2.99 2.99z" fill="#DADADA"/>
        <path d="M12.78 18.113h-2.4a.325.325 0 0 0-.326.325v6.53h3.052v-6.53a.326.326 0 0 0-.326-.325M19.49 15.572h-2.401a.325.325 0 0 0-.325.326v9.07h3.051v-9.07a.325.325 0 0 0-.325-.326M26.2 13.032h-2.401a.325.325 0 0 0-.326.326v11.61h3.052v-11.61a.325.325 0 0 0-.326-.326" fill="#FFF"/>
    </g>
</svg>
