<svg width="36" height="36" viewBox="0 0 36 36" xmlns="http://www.w3.org/2000/svg">
    <g fill="none" fill-rule="evenodd">
        <path d="M0 36h36V0H0z"/>
        <path d="M26.198 27.77V7.391a1.883 1.883 0 0 0-1.88-1.881H5.988a1.883 1.883 0 0 0-1.881 1.881v21.216c0 1.037.844 1.882 1.881 1.882h22.114s-1.905-.24-1.905-2.72" fill="#DADADA"/>
        <path d="M30.014 13.003h-2.546V27.77c0 2.093 1.068 2.006 1.673 2.006 1.193 0 2.752-1.183 2.752-3.148V14.882a1.881 1.881 0 0 0-1.88-1.879" fill="#DADADA"/>
        <path d="M13.759 16.026H8.358a.428.428 0 0 1-.428-.428v-4.993c0-.236.191-.428.428-.428h5.4c.237 0 .429.192.429.428v4.993a.428.428 0 0 1-.428.428M22.266 20.482H8.648a.834.834 0 1 1 0-1.67h13.618a.834.834 0 0 1 0 1.67M22.266 24.782H8.648a.834.834 0 1 1 0-1.669h13.618a.834.834 0 0 1 0 1.67" fill="#FFF"/>
    </g>
</svg>
