<svg width="36" height="36" viewBox="0 0 36 36" xmlns="http://www.w3.org/2000/svg">
    <g fill="none" fill-rule="evenodd">
        <path d="M0 36h36V0H0z"/>
        <path d="M32.22 22.304H20.998a.163.163 0 0 1-.163-.163v-7.414c0-.09.073-.164.163-.164h11.224c.09 0 .162.073.162.164v7.414c0 .09-.073.163-.162.163" fill="#DADADA"/>
        <path d="m21.486 15.199-.017 6.454 10.263.016c.01 0 .016-.007.016-.016v-6.438l-10.262-.016zm10.246 7.74H21.486c-.71 0-1.287-.577-1.287-1.286v-6.438c0-.71.577-1.286 1.287-1.286h10.246c.71 0 1.286.577 1.286 1.286v6.438c0 .71-.576 1.286-1.286 1.286z" fill="#DADADA"/>
        <path d="M18.93 21.653v-6.438a2.56 2.56 0 0 1 2.556-2.556h9.916V9.386a2.392 2.392 0 0 0-2.39-2.39H5.93a2.392 2.392 0 0 0-2.39 2.389v18.098a2.392 2.392 0 0 0 2.39 2.389h23.083a2.392 2.392 0 0 0 2.39-2.39V24.21h-9.917a2.56 2.56 0 0 1-2.557-2.556" fill="#DADADA"/>
        <path d="M25.76 18.434a1.23 1.23 0 1 1-2.46 0 1.23 1.23 0 0 1 2.46 0" fill="#FFF"/>
    </g>
</svg>
