<svg width="30" height="31" viewBox="0 0 30 31" xmlns="http://www.w3.org/2000/svg">
    <g fill="none" fill-rule="evenodd">
        <path d="M0 30.534h30v-30H0z"/>
        <path d="M4.306 6.691a.467.467 0 0 0-.467.467v9.513c0 .258.21.467.467.467h17.685c.258 0 .467-.21.467-.467V7.158a.467.467 0 0 0-.467-.467H4.306zm17.685 11.954H4.306a1.976 1.976 0 0 1-1.974-1.974V7.158c0-1.088.886-1.974 1.974-1.974h17.685c1.089 0 1.974.886 1.974 1.974v9.513a1.976 1.976 0 0 1-1.974 1.974z" fill="#0076B5"/>
        <path d="M13.149 9.576a2.341 2.341 0 0 0-2.34 2.339c0 1.29 1.05 2.339 2.34 2.339 1.29 0 2.339-1.05 2.339-2.34 0-1.289-1.05-2.338-2.34-2.338m0 6.185a3.85 3.85 0 0 1-3.845-3.846 3.85 3.85 0 0 1 3.846-3.846 3.85 3.85 0 0 1 3.846 3.846 3.85 3.85 0 0 1-3.846 3.846M7.119 12.668h-.886a.754.754 0 1 1 0-1.507h.886a.754.754 0 1 1 0 1.507M20.105 12.668h-.886a.754.754 0 1 1 0-1.507h.886a.754.754 0 1 1 0 1.507" fill="#0076B5"/>
        <path d="M26.915 18.02a4.284 4.284 0 1 0-8.568 0 4.284 4.284 0 0 0 8.568 0" fill="#FFF"/>
        <path d="M22.63 14.49a3.534 3.534 0 0 0-3.53 3.53 3.534 3.534 0 0 0 3.53 3.53 3.534 3.534 0 0 0 3.531-3.53 3.534 3.534 0 0 0-3.53-3.53m0 8.568a5.043 5.043 0 0 1-5.037-5.038 5.043 5.043 0 0 1 5.037-5.037 5.043 5.043 0 0 1 5.037 5.037 5.043 5.043 0 0 1-5.037 5.038" fill="#0076B5"/>
        <path fill="#FFF" d="m21.506 19.064 2.323-2.229"/>
        <path d="M21.506 19.817a.754.754 0 0 1-.522-1.297l2.322-2.228a.754.754 0 0 1 1.044 1.087l-2.322 2.228a.752.752 0 0 1-.522.21" fill="#0076B5"/>
        <path d="M20.956 20.845a4.284 4.284 0 1 1-8.568 0 4.284 4.284 0 0 1 8.568 0" fill="#FFF"/>
        <path d="M16.672 17.315a3.534 3.534 0 0 0-3.53 3.53 3.534 3.534 0 0 0 3.53 3.53 3.534 3.534 0 0 0 3.53-3.53 3.534 3.534 0 0 0-3.53-3.53m0 8.568a5.043 5.043 0 0 1-5.037-5.037 5.043 5.043 0 0 1 5.037-5.038 5.043 5.043 0 0 1 5.037 5.038 5.043 5.043 0 0 1-5.037 5.037" fill="#0076B5"/>
        <path fill="#FFF" d="m15.547 19.802 2.323 2.228"/>
        <path d="M17.87 22.784a.752.752 0 0 1-.522-.21l-2.323-2.228a.754.754 0 0 1 1.044-1.088l2.322 2.228a.754.754 0 0 1-.521 1.298" fill="#0076B5"/>
    </g>
</svg>
