<svg width="30" height="31" viewBox="0 0 30 31" xmlns="http://www.w3.org/2000/svg">
    <g fill="none" fill-rule="evenodd">
        <path d="M0 30.534h30v-30H0z"/>
        <path d="M20.69 6.601a2.685 2.685 0 0 1 2.681 2.683V23.57a2.685 2.685 0 0 1-2.682 2.682H9.311A2.686 2.686 0 0 1 6.63 23.57V9.284A2.686 2.686 0 0 1 9.31 6.6h2.049v1.506l-2.049.001c-.648 0-1.175.528-1.175 1.176V23.57c0 .648.527 1.175 1.175 1.175H20.69c.648 0 1.175-.527 1.175-1.175V9.284c0-.648-.527-1.176-1.175-1.176h-2.05V6.6l2.05.001z" fill="#0076B5"/>
        <path d="M12.325 6.322a.211.211 0 0 0-.212.211v1.643c0 .117.095.211.212.211h5.35a.212.212 0 0 0 .212-.21V6.532a.212.212 0 0 0-.212-.21h-5.35zm5.35 3.572h-5.35a1.72 1.72 0 0 1-1.719-1.718V6.533c0-.947.771-1.718 1.719-1.718h5.35c.948 0 1.72.77 1.72 1.718v1.643a1.72 1.72 0 0 1-1.72 1.718z" fill="#0076B5"/>
        <path fill="#F5F9FF" d="m9.791 14.479 1.636 1.368 2.438-2.736"/>
        <path d="M11.426 16.6a.75.75 0 0 1-.483-.175l-1.636-1.368a.754.754 0 1 1 .968-1.156l1.075.9 1.952-2.191a.754.754 0 1 1 1.126 1.002l-2.439 2.736a.753.753 0 0 1-.563.252" fill="#0076B5"/>
        <path fill="#F5F9FF" d="M16.105 14.479h3.693"/>
        <path d="M19.797 15.232h-3.693a.754.754 0 1 1 0-1.507h3.693a.754.754 0 0 1 0 1.507" fill="#0076B5"/>
        <path fill="#F5F9FF" d="m9.791 20.004 1.636 1.368 2.438-2.736"/>
        <path d="M11.426 22.126a.75.75 0 0 1-.483-.176l-1.636-1.368a.754.754 0 1 1 .968-1.156l1.075.9 1.952-2.191a.754.754 0 0 1 1.126 1.003l-2.439 2.735a.752.752 0 0 1-.563.253" fill="#0076B5"/>
        <path fill="#F5F9FF" d="M16.105 20.004h3.693"/>
        <path d="M19.797 20.758h-3.693a.754.754 0 1 1 0-1.508h3.693a.754.754 0 1 1 0 1.508" fill="#0076B5"/>
    </g>
</svg>
