<svg width="28" height="28" viewBox="0 0 28 28" xmlns="http://www.w3.org/2000/svg">
    <g fill="none" fill-rule="evenodd">
        <path d="M0 28h28V0H0z"/>
        <g fill="#0076B5">
            <path d="M14 7.105a3.719 3.719 0 0 0-3.715 3.714A3.719 3.719 0 0 0 14 14.534a3.719 3.719 0 0 0 3.715-3.715A3.719 3.719 0 0 0 14 7.105m0 8.656a4.947 4.947 0 0 1-4.942-4.942A4.947 4.947 0 0 1 14 5.878a4.947 4.947 0 0 1 4.942 4.941A4.947 4.947 0 0 1 14 15.761"/>
            <path d="M14 4.227C8.61 4.227 4.227 8.61 4.227 14c0 5.389 4.384 9.773 9.773 9.773 5.389 0 9.773-4.384 9.773-9.773 0-5.389-4.384-9.773-9.773-9.773M14 25C7.935 25 3 20.065 3 14 3 7.934 7.935 3 14 3c6.066 0 11 4.934 11 11 0 6.065-4.934 11-11 11"/>
            <path d="M7.297 21.111A9.7 9.7 0 0 0 14 23.773a9.7 9.7 0 0 0 6.703-2.662 6.682 6.682 0 0 0-6.54-5.255h-.325a6.682 6.682 0 0 0-6.541 5.255M14 25a10.923 10.923 0 0 1-7.804-3.249l-.223-.224.054-.312a7.907 7.907 0 0 1 7.81-6.586h.325a7.907 7.907 0 0 1 7.811 6.586l.054.312-.223.224A10.924 10.924 0 0 1 14 25"/>
        </g>
    </g>
</svg>
