<svg width="30" height="31" viewBox="0 0 30 31" xmlns="http://www.w3.org/2000/svg">
    <g fill="none" fill-rule="evenodd">
        <path d="M0 30.534h30v-30H0z"/>
        <g fill="#0076B5">
            <path d="M14.99 13.383c-1.186 0-2.15.965-2.15 2.15 0 1.186.964 2.151 2.15 2.151s2.15-.965 2.15-2.15c0-1.186-.964-2.151-2.15-2.151m0 5.753a3.606 3.606 0 0 1-3.602-3.603 3.606 3.606 0 0 1 3.602-3.602 3.606 3.606 0 0 1 3.602 3.602 3.606 3.606 0 0 1-3.602 3.603"/>
            <path d="m9.274 20.563.396.39a7.598 7.598 0 0 0 3.343 1.908l.537.145v2.196h2.88v-2.196l.538-.145a7.6 7.6 0 0 0 3.35-1.915l.396-.39 1.897 1.113 1.807-3.103-.367.626-1.89-1.108.147-.537c.186-.674.28-1.351.28-2.014 0-.655-.093-1.327-.275-1.997l-.146-.535 1.884-1.106-1.44-2.476-1.885 1.105-.396-.392a7.599 7.599 0 0 0-3.362-1.926l-.537-.145V5.865h-2.88V8.06l-.538.145a7.598 7.598 0 0 0-3.355 1.92l-.397.391L7.389 9.42l-1.44 2.476 1.868 1.096-.147.536a7.61 7.61 0 0 0-.277 2.006c0 .665.095 1.346.281 2.023l.148.537-1.873 1.1 1.44 2.476 1.885-1.106zm7.156 6.09h-2.88c-.8 0-1.451-.65-1.451-1.451V24.1a9.054 9.054 0 0 1-3.033-1.732l-.942.553c-.336.196-.729.25-1.104.152a1.444 1.444 0 0 1-.887-.675l-1.44-2.475c-.4-.69-.167-1.58.521-1.983l.928-.544a8.94 8.94 0 0 1-.2-1.863c0-.608.065-1.226.196-1.844l-.924-.541a1.455 1.455 0 0 1-.52-1.983l1.44-2.476c.195-.336.51-.575.886-.674a1.445 1.445 0 0 1 1.103.152l.927.544A9.058 9.058 0 0 1 12.1 6.967V5.865c0-.8.651-1.452 1.452-1.452h2.879c.8 0 1.452.652 1.452 1.452v1.102a9.057 9.057 0 0 1 3.056 1.75l.938-.55c.336-.197.728-.25 1.104-.152.376.099.69.338.886.674l1.44 2.475c.401.69.168 1.58-.52 1.984l-.941.551c.129.615.194 1.23.194 1.834 0 .613-.067 1.234-.198 1.853l.945.554c.688.404.922 1.294.52 1.983l-1.44 2.475c-.195.336-.51.576-.886.675a1.443 1.443 0 0 1-1.104-.152l-.953-.56a9.062 9.062 0 0 1-3.041 1.739v1.102c0 .8-.651 1.452-1.452 1.452z"/>
        </g>
    </g>
</svg>
