<svg width="14" height="20" viewBox="0 0 14 20" xmlns="http://www.w3.org/2000/svg">
    <g fill="#A7A7A7" fill-rule="nonzero">
        <path d="M3.5 11.974c0 .116.046.243.138.335l3.03 3.052A.458.458 0 0 0 7 15.5a.458.458 0 0 0 .333-.139l3.03-3.052a.477.477 0 0 0 0-.67.469.469 0 0 0-.666 0L7 14.355 4.303 11.64a.469.469 0 0 0-.803.335zM3.5 8.026c0-.116.046-.243.138-.335l3.03-3.052A.458.458 0 0 1 7 4.5c.126 0 .241.046.333.139l3.03 3.052a.477.477 0 0 1 0 .67.469.469 0 0 1-.666 0L7 5.645 4.303 8.36a.469.469 0 0 1-.803-.335z"/>
    </g>
</svg>
