<svg width="30" height="31" viewBox="0 0 30 31" xmlns="http://www.w3.org/2000/svg">
    <g fill="none" fill-rule="evenodd">
        <path d="M0 30.534h30v-30H0z"/>
        <g fill="#0076B5">
            <path d="M15 6.48c-4.992 0-9.054 4.061-9.054 9.054 0 4.992 4.062 9.053 9.054 9.053s9.054-4.061 9.054-9.053c0-4.993-4.062-9.054-9.054-9.054m0 19.614c-5.823 0-10.561-4.737-10.561-10.56C4.439 9.71 9.177 4.972 15 4.972c5.824 0 10.561 4.738 10.561 10.562 0 5.823-4.737 10.56-10.561 10.56"/>
            <path d="M15 17.895a.754.754 0 0 1-.754-.753V9.574a.754.754 0 1 1 1.508 0v7.568a.754.754 0 0 1-.754.753M16.102 20.356a1.102 1.102 0 1 1-2.204 0 1.102 1.102 0 0 1 2.204 0"/>
        </g>
    </g>
</svg>
