<svg width="30" height="31" viewBox="0 0 30 31" xmlns="http://www.w3.org/2000/svg">
    <g fill="none" fill-rule="evenodd">
        <path d="M0 30.534h30v-30H0z"/>
        <g fill="#0076B5">
            <path d="M16.474 9.194c-.238.463-.398.971-.467 1.508H6.06a.467.467 0 0 0-.466.467v11.985c0 .258.21.467.466.467h14.527c.258 0 .467-.209.467-.467v-7.297a4.565 4.565 0 0 0 1.508-.43v7.727a1.976 1.976 0 0 1-1.975 1.974H6.06a1.976 1.976 0 0 1-1.973-1.974V11.17c0-1.088.885-1.974 1.973-1.974z"/>
            <path d="M5.593 18.683h3.636c.258 0 .467-.21.467-.468v-2.107a.467.467 0 0 0-.467-.467H5.593v3.042zm3.636 1.507H4.085v-6.056H9.23c1.089 0 1.974.886 1.974 1.974v2.107A1.977 1.977 0 0 1 9.23 20.19zM20.566 7.446a3.846 3.846 0 0 0-3.842 3.841 3.846 3.846 0 0 0 3.842 3.842 3.846 3.846 0 0 0 3.841-3.842 3.846 3.846 0 0 0-3.841-3.841m0 9.19c-2.95 0-5.35-2.4-5.35-5.349 0-2.949 2.4-5.349 5.35-5.349 2.95 0 5.349 2.4 5.349 5.35 0 2.949-2.4 5.348-5.35 5.348"/>
            <path d="M20.566 7.446a3.846 3.846 0 0 0-3.842 3.841 3.846 3.846 0 0 0 3.842 3.842 3.846 3.846 0 0 0 3.841-3.842 3.846 3.846 0 0 0-3.841-3.841m0 9.19c-2.95 0-5.35-2.4-5.35-5.349 0-2.949 2.4-5.349 5.35-5.349 2.95 0 5.349 2.4 5.349 5.35 0 2.949-2.4 5.348-5.35 5.348"/>
            <path d="M20.566 13.921a.754.754 0 0 1-.754-.753V9.406a.754.754 0 0 1 1.507 0v3.762a.754.754 0 0 1-.753.753"/>
            <path d="M22.446 12.04h-3.761a.754.754 0 1 1 0-1.507h3.761a.754.754 0 0 1 0 1.507"/>
        </g>
    </g>
</svg>
