<svg width="28" height="28" viewBox="0 0 28 28" xmlns="http://www.w3.org/2000/svg" xmlns:xlink="http://www.w3.org/1999/xlink">
    <defs>
        <path id="a" d="M0 0h28v28H0z"/>
    </defs>
    <g fill="none" fill-rule="evenodd">
        <mask id="b" fill="#fff">
            <use xlink:href="#a"/>
        </mask>
        <g mask="url(#b)" fill="#0076B5">
            <path d="M4.813 24.063a.438.438 0 0 1 0 .875v-.875zM3.5 22.75c0-.241.196-.438.438-.438v.875a.438.438 0 0 1-.438-.437zm.875 3.938a.437.437 0 0 0 .438-.438v-.438c.723 0 1.312-.588 1.312-1.312 0-.724-.589-1.313-1.313-1.313v-.875h.438a.437.437 0 1 0 0-.875h-.438V21a.437.437 0 1 0-.875 0v.438c-.723 0-1.312.588-1.312 1.312 0 .724.589 1.313 1.313 1.313v.875H3.5a.437.437 0 1 0 0 .875h.438v.437c0 .242.195.438.437.438zM2.188 7.875h3.937V10.5H2.187A1.314 1.314 0 0 1 .875 9.187c0-.723.589-1.312 1.313-1.312zM7 .875h12.25V10.5h-.875V4.375a.437.437 0 0 0-.438-.438c-.965 0-1.75-.784-1.75-1.75a.437.437 0 0 0-.437-.437H10.5a.437.437 0 0 0-.438.438c0 .965-.784 1.75-1.75 1.75a.437.437 0 0 0-.437.437V10.5H7V.875zM20.125 10.5h2.625V7.875h-2.625V10.5zm-8.695 0a1.754 1.754 0 0 1 1.695-1.313c.814 0 1.5.559 1.694 1.313H11.43zm6.07 0h-1.79a2.627 2.627 0 0 0-2.585-2.188 2.627 2.627 0 0 0-2.586 2.188H8.75V4.776a2.632 2.632 0 0 0 2.151-2.151h4.448A2.632 2.632 0 0 0 17.5 4.776V10.5zM.437 19.963a.437.437 0 0 0 .438-.437v-8.59c.337.254.841.439 1.313.439h22.75c.241 0 .437.196.437.438v3.062a.437.437 0 1 0 .875 0v-3.063c0-.723-.589-1.312-1.313-1.312h-1.312V7.437A.437.437 0 0 0 23.187 7h-3.062V.437A.437.437 0 0 0 19.687 0H6.563a.437.437 0 0 0-.437.438V7H2.187A2.19 2.19 0 0 0 0 9.188v10.338c0 .242.196.437.438.437z"/>
            <path d="M25.813 23.188a.437.437 0 0 0-.438.437v3.063a.438.438 0 0 1-.438.437H4.375c-1.93 0-3.5-1.57-3.5-3.5s1.57-3.5 3.5-3.5 3.5 1.57 3.5 3.5c0 .696-.204 1.368-.59 1.943a.438.438 0 0 0 .726.489c.484-.72.739-1.562.739-2.432a4.38 4.38 0 0 0-4.375-4.375A4.38 4.38 0 0 0 0 23.625 4.38 4.38 0 0 0 4.375 28h20.563c.723 0 1.312-.589 1.312-1.313v-3.062a.437.437 0 0 0-.438-.438M13.125 6.563a.438.438 0 1 1 0-.876.438.438 0 0 1 0 .875m0-1.75c-.724 0-1.313.59-1.313 1.313 0 .724.59 1.313 1.313 1.313.724 0 1.313-.59 1.313-1.313 0-.724-.59-1.313-1.313-1.313M27.125 21.438h-3.938A2.19 2.19 0 0 1 21 19.25a2.19 2.19 0 0 1 2.188-2.188h3.937v4.375zm.438-5.25h-4.375a3.066 3.066 0 0 0-3.063 3.062 3.066 3.066 0 0 0 3.063 3.063h4.375a.437.437 0 0 0 .437-.438v-5.25a.437.437 0 0 0-.438-.438z"/>
            <path d="M23.625 19.25a.438.438 0 1 1-.875 0 .438.438 0 0 1 .875 0m-1.75 0c0 .724.589 1.313 1.313 1.313.723 0 1.312-.59 1.312-1.313 0-.724-.589-1.313-1.313-1.313-.723 0-1.312.59-1.312 1.313"/>
        </g>
    </g>
</svg>
