<svg width="30" height="31" viewBox="0 0 30 31" xmlns="http://www.w3.org/2000/svg">
    <g fill="none" fill-rule="evenodd">
        <path d="M0 30.534h30v-30H0z"/>
        <g fill="#0076B5">
            <path d="M6.158 7.375a.467.467 0 0 0-.468.467v9.513c0 .257.21.467.468.467h17.684c.258 0 .468-.21.468-.467V7.842a.467.467 0 0 0-.468-.467H6.158zm17.684 11.954H6.158a1.976 1.976 0 0 1-1.975-1.974V7.842c0-1.089.886-1.974 1.975-1.974h17.684c1.09 0 1.975.885 1.975 1.974v9.513a1.976 1.976 0 0 1-1.975 1.974z"/>
            <path d="M15 10.26a2.342 2.342 0 0 0-2.339 2.338c0 1.29 1.05 2.34 2.339 2.34 1.29 0 2.339-1.05 2.339-2.34 0-1.29-1.05-2.339-2.339-2.339m0 6.186a3.85 3.85 0 0 1-3.846-3.847A3.85 3.85 0 0 1 15 8.752a3.85 3.85 0 0 1 3.846 3.846A3.85 3.85 0 0 1 15 16.445M15 25.2a.754.754 0 0 1-.754-.754v-5.87a.754.754 0 1 1 1.508 0v5.87a.754.754 0 0 1-.754.753"/>
            <path d="M14.998 25.2c-.2 0-.391-.08-.532-.222l-2.984-2.983a.753.753 0 1 1 1.066-1.066l2.45 2.45 2.45-2.45a.753.753 0 1 1 1.066 1.066l-2.983 2.983a.754.754 0 0 1-.533.221M8.95 13.352h-.886a.754.754 0 1 1 0-1.507h.886a.754.754 0 1 1 0 1.507M21.936 13.352h-.885a.754.754 0 1 1 0-1.507h.885a.754.754 0 1 1 0 1.507"/>
        </g>
    </g>
</svg>
